<svg width="25" height="25" viewBox="0 0 25 25" fill="none" xmlns="http://www.w3.org/2000/svg">
<path d="M9.5 15.5H15.5M9.5 12.5H15.5M3.5 6.5V17.3C3.5 18.4201 3.5 18.9796 3.71799 19.4074C3.90973 19.7837 4.21547 20.0905 4.5918 20.2822C5.0192 20.5 5.57899 20.5 6.69691 20.5H18.3037C19.4216 20.5 19.9806 20.5 20.408 20.2822C20.7843 20.0905 21.0905 19.7841 21.2822 19.4078C21.5002 18.98 21.5002 18.4199 21.5002 17.2998L21.5002 9.69978C21.5002 8.57967 21.5002 8.01962 21.2822 7.5918C21.0905 7.21547 20.7837 6.90973 20.4074 6.71799C19.9796 6.5 19.4201 6.5 18.3 6.5H12.5M3.5 6.5H12.5M3.5 6.5C3.5 5.39543 4.39543 4.5 5.5 4.5H9.17452C9.6637 4.5 9.90915 4.5 10.1393 4.55526C10.3434 4.60425 10.5379 4.68526 10.7168 4.79492C10.9186 4.91856 11.0918 5.09183 11.4375 5.4375L12.5 6.5" stroke="white" stroke-width="1.6" stroke-linecap="round" stroke-linejoin="round"/>
</svg>