<svg width="18" height="18" viewBox="0 0 18 18" fill="none" xmlns="http://www.w3.org/2000/svg">
<g clip-path="url(#clip0_483_18539)">
<path d="M5.59961 4.62082L5.59961 3.19998C5.59961 2.20986 5.59961 1.7148 5.89663 1.4072C6.19365 1.09961 6.67169 1.09961 7.62778 1.09961L10.3718 1.09961C11.3279 1.09961 11.8059 1.09961 12.1029 1.4072C12.4 1.71479 12.4 2.20986 12.4 3.19998V4.62082" stroke="#333333" stroke-width="1.36007"/>
<path d="M10.7002 8.93262V13.1828" stroke="#333333" stroke-width="1.36007" stroke-linecap="round"/>
<path d="M7.2998 8.93262V13.1828" stroke="#333333" stroke-width="1.36007" stroke-linecap="round"/>
<path d="M9.00098 17.4209C7.85171 17.4209 7.03996 17.4196 6.40918 17.3555C5.86833 17.3004 5.5137 17.2029 5.23535 17.0508L5.12109 16.9824C4.94386 16.8674 4.78041 16.7324 4.63477 16.5801L4.49512 16.4229C4.27196 16.15 4.11372 15.7899 3.9834 15.1826C3.91687 14.8726 3.86054 14.5157 3.80566 14.0937L3.63379 12.6143L2.75879 4.69531L15.2422 4.69531L14.3672 12.6143C14.241 13.7565 14.1516 14.5627 14.0186 15.1826C13.9046 15.7138 13.7685 16.0555 13.5869 16.3154L13.5059 16.4229C13.3722 16.5863 13.22 16.7334 13.0527 16.8613L12.8809 16.9824C12.5851 17.1743 12.2098 17.2926 11.5918 17.3555C10.9611 17.4196 10.1501 17.4209 9.00098 17.4209Z" stroke="#333333" stroke-width="1.36007"/>
<path d="M1.34961 4.60449H16.6504" stroke="#333333" stroke-width="1.36007" stroke-linecap="round"/>
</g>
<defs>
<clipPath id="clip0_483_18539">
<rect width="18" height="18" fill="white"/>
</clipPath>
</defs>
</svg>
