<svg width="122" height="94" viewBox="0 0 122 94" fill="none" xmlns="http://www.w3.org/2000/svg">
<g clip-path="url(#clip0_483_17067)">
<path d="M94.8697 47.2795C105.771 37.1534 106.365 20.1387 96.1931 9.28686C86.0096 -1.565 68.9287 -2.15671 58.0275 7.96946C48.6963 16.6331 46.9243 30.3207 52.9694 40.9046L52.9581 40.9158L47.4739 46.0068L48.7861 55.0835L40.2624 52.7055L33.3875 59.0915L34.6996 68.1683L26.176 65.7902L20.2656 71.2831L21.0618 76.8207L15.8692 75.3693L12.4261 78.5624L11.9102 86.9692L24.5049 90.1288L65.3847 52.1696C74.9962 56.4456 86.6713 54.8825 94.8697 47.2795ZM90.8771 14.2216C93.793 17.3364 93.6248 22.2153 90.4957 25.1181C87.3667 28.0208 82.4656 27.8534 79.5496 24.7385C76.6336 21.6236 76.8019 16.7447 79.9309 13.842C83.0488 10.9392 87.9499 11.1067 90.8771 14.2216Z" fill="url(#paint0_linear_483_17067)"/>
<path d="M90.8768 14.2212C90.832 14.277 90.3721 13.7523 89.3403 13.1159C88.331 12.5019 86.6038 11.8097 84.4617 12.0553C82.3644 12.2563 79.8634 13.596 78.5961 16.1192C77.2951 18.5642 77.5418 22.148 79.7961 24.5148C82.0055 26.9152 85.5832 27.4176 88.1291 26.29C90.7422 25.207 92.2675 22.8178 92.604 20.7413C92.9965 18.6312 92.4245 16.8784 91.875 15.8289C91.303 14.7571 90.8207 14.2659 90.8768 14.2212C90.8993 14.21 91.0226 14.3217 91.2469 14.5561C91.4825 14.7906 91.7853 15.1702 92.0993 15.7061C92.7386 16.7555 93.4227 18.5754 93.075 20.8306C92.7722 23.0411 91.1909 25.6536 88.3646 26.8594C86.9851 27.4623 85.3365 27.6967 83.7103 27.3841C82.084 27.105 80.5027 26.2453 79.3026 24.9838C78.1138 23.6998 77.3736 22.0698 77.2054 20.4398C77.0035 18.8098 77.3512 17.1798 78.0465 15.8512C79.4484 13.1271 82.1738 11.7427 84.4168 11.5976C86.7047 11.4078 88.4768 12.2116 89.4861 12.915C90.002 13.2722 90.3609 13.596 90.574 13.8416C90.7871 14.0761 90.888 14.21 90.8768 14.2212Z" fill="url(#paint1_linear_483_17067)"/>
<path d="M94.8698 47.2794C94.8698 47.2794 94.7464 47.4134 94.4772 47.6478C94.1968 47.9046 93.8043 48.2507 93.2884 48.7085C92.1781 49.557 90.5182 50.8409 88.0621 52.0131C85.6171 53.1742 82.3871 54.2572 78.4618 54.581C74.5589 54.8712 69.9382 54.38 65.295 52.3369L65.5193 52.3034C54.9882 62.1281 40.969 75.1906 24.7181 90.3407L24.5947 90.4524L24.4377 90.4077C20.4787 89.4253 16.2057 88.3535 11.8429 87.2594L11.585 87.1924L11.5962 86.9356C11.7532 84.3119 11.9326 81.4427 12.1009 78.5287L12.1121 78.4059L12.2018 78.3166C13.2673 77.323 14.4449 76.2289 15.6337 75.1236L15.7683 75.0008L15.9477 75.0454C17.5627 75.492 19.3459 75.9944 21.1404 76.4968L20.7254 76.8541C20.4787 75.1236 20.1983 73.2256 19.9179 71.3165L19.8955 71.149L20.0189 71.0262C21.8806 69.2957 23.8881 67.4313 25.9293 65.5333L26.0639 65.4105L26.2434 65.4663C28.935 66.2143 31.8398 67.0293 34.767 67.8444L34.3408 68.2128C33.9258 65.3324 33.4772 62.251 33.0286 59.1361L33.0062 58.9574L33.1295 58.8346C33.7015 58.2987 34.3296 57.7182 34.9464 57.1376C36.6399 55.5634 38.3222 54.0004 39.9933 52.4486L40.1279 52.3146L40.3073 52.3704C43.1785 53.1742 46.0159 53.9669 48.831 54.7484L48.4048 55.1169C47.9674 52.0578 47.53 49.0322 47.0926 46.0402L47.0702 45.8727L47.1935 45.7499C49.0441 44.0305 50.8721 42.3336 52.689 40.6477L52.6329 41.0496C50.502 37.2426 49.2796 33.0224 49.1226 28.8134C49.0328 26.7145 49.1562 24.6155 49.5712 22.5948C49.9188 20.5628 50.5805 18.6091 51.3656 16.7446C54.6068 9.27557 61.1454 3.90546 68.1549 1.73956C75.2093 -0.482172 82.6002 0.399821 88.3649 3.25792C94.2753 6.08253 98.425 10.8163 100.848 15.6282C103.214 20.5182 103.898 25.5087 103.506 29.74C103.158 33.9937 101.879 37.4882 100.477 40.0895C100.309 40.4133 100.141 40.737 99.9727 41.0496C99.7821 41.3399 99.6026 41.6302 99.4232 41.8981C99.0531 42.4452 98.7502 42.9811 98.4026 43.4277C97.6736 44.2985 97.1128 45.0912 96.5633 45.6382C96.0249 46.1741 95.61 46.5872 95.3184 46.8775C95.0156 47.1454 94.8698 47.2794 94.8698 47.2794C94.8698 47.2794 94.9931 47.1231 95.2623 46.8328C95.5539 46.5314 95.9464 46.1071 96.4623 45.5601C97.0007 45.0019 97.539 44.2092 98.2456 43.3272C98.582 42.8806 98.8848 42.3447 99.2437 41.7977C99.4232 41.5185 99.6026 41.2394 99.7821 40.9492C99.9391 40.6366 100.096 40.3239 100.264 39.989C101.621 37.3877 102.855 33.9155 103.169 29.7177C103.528 25.5422 102.81 20.6187 100.466 15.8291C98.0549 11.1065 93.9613 6.47329 88.1967 3.738C82.5217 0.946879 75.2654 0.0983799 68.3792 2.29778C61.5267 4.43019 55.1452 9.71098 51.9937 17.0014C51.2198 18.8212 50.5805 20.7303 50.2441 22.7176C49.8516 24.6937 49.7282 26.748 49.8179 28.7911C49.9749 32.8996 51.175 37.0193 53.261 40.737L53.3844 40.9603L53.1937 41.139C51.3768 42.8248 49.5487 44.5218 47.6982 46.2411L47.7992 45.9508C48.2366 48.9429 48.6739 51.9685 49.1113 55.0275L49.1899 55.5299L48.6964 55.396C45.8813 54.6145 43.0327 53.8218 40.1728 53.0179L40.498 52.9398C38.8269 54.4917 37.1446 56.0547 35.4511 57.6289C34.8231 58.2094 34.2062 58.79 33.6342 59.3259L33.7352 59.0356C34.1838 62.1505 34.6324 65.2319 35.0474 68.1123L35.1259 68.6259L34.6324 68.4919C31.7052 67.6769 28.8004 66.8619 26.1088 66.1139L26.4228 66.0357C24.3928 67.9225 22.3741 69.7981 20.5123 71.5175L20.6133 71.2272C20.8937 73.1363 21.1628 75.0343 21.4096 76.7648L21.4769 77.2672L20.9946 77.1332C19.2001 76.6308 17.4169 76.1284 15.8019 75.6818L16.1159 75.6036C14.9271 76.7089 13.7383 77.803 12.6728 78.7967L12.7738 78.5846C12.5943 81.4985 12.4149 84.3678 12.2579 86.9914L12.0224 86.6676C16.3963 87.7618 20.6694 88.8447 24.6171 89.8383L24.3368 89.9053C40.6438 74.811 54.7078 61.8044 65.2838 52.0131L65.3847 51.9238L65.5081 51.9796C70.0615 54.0116 74.6149 54.5363 78.4842 54.2795C82.3647 53.9893 85.5723 52.951 88.006 51.8345C90.4509 50.6957 92.122 49.4565 93.2548 48.6415C93.7819 48.2061 94.1856 47.8711 94.4772 47.6367C94.7127 47.3799 94.8698 47.2794 94.8698 47.2794Z" fill="url(#paint2_linear_483_17067)"/>
</g>
<defs>
<linearGradient id="paint0_linear_483_17067" x1="138.818" y1="-34.8052" x2="-34.6784" y2="-3.72438" gradientUnits="userSpaceOnUse">
<stop stop-color="#04B961"/>
<stop offset="1" stop-color="#006C37"/>
</linearGradient>
<linearGradient id="paint1_linear_483_17067" x1="99.3586" y1="5.22429" x2="68.9586" y2="10.5644" gradientUnits="userSpaceOnUse">
<stop stop-color="#04B961"/>
<stop offset="1" stop-color="#006C37"/>
</linearGradient>
<linearGradient id="paint2_linear_483_17067" x1="139.164" y1="-35.2915" x2="-35.2629" y2="-4.08101" gradientUnits="userSpaceOnUse">
<stop stop-color="#04B961"/>
<stop offset="1" stop-color="#006C37"/>
</linearGradient>
<clipPath id="clip0_483_17067">
<rect width="122" height="93" fill="white" transform="translate(0 0.5)"/>
</clipPath>
</defs>
</svg>
