<svg width="25" height="25" viewBox="0 0 25 25" fill="none" xmlns="http://www.w3.org/2000/svg">
<path d="M8.5 4.5H7.7002C6.58009 4.5 6.01962 4.5 5.5918 4.71799C5.21547 4.90973 4.90973 5.21547 4.71799 5.5918C4.5 6.01962 4.5 6.58009 4.5 7.7002V8.5M8.5 4.5H16.5M8.5 4.5V2.5M16.5 4.5H17.3002C18.4203 4.5 18.9796 4.5 19.4074 4.71799C19.7837 4.90973 20.0905 5.21547 20.2822 5.5918C20.5 6.0192 20.5 6.57899 20.5 7.69691V8.5M16.5 4.5V2.5M4.5 8.5V17.3002C4.5 18.4203 4.5 18.9801 4.71799 19.4079C4.90973 19.7842 5.21547 20.0905 5.5918 20.2822C6.0192 20.5 6.57899 20.5 7.69691 20.5H17.3031C18.421 20.5 18.98 20.5 19.4074 20.2822C19.7837 20.0905 20.0905 19.7842 20.2822 19.4079C20.5 18.9805 20.5 18.4215 20.5 17.3036V8.5M4.5 8.5H20.5M16.5 16.5H16.502L16.502 16.502L16.5 16.502V16.5ZM12.5 16.5H12.502L12.502 16.502L12.5 16.502V16.5ZM8.5 16.5H8.502L8.50195 16.502L8.5 16.502V16.5ZM16.502 12.5V12.502L16.5 12.502V12.5H16.502ZM12.5 12.5H12.502L12.502 12.502L12.5 12.502V12.5ZM8.5 12.5H8.502L8.50195 12.502L8.5 12.502V12.5Z" stroke="white" stroke-width="1.6" stroke-linecap="round" stroke-linejoin="round"/>
</svg>