<svg width="21" height="23" viewBox="0 0 21 23" fill="none" xmlns="http://www.w3.org/2000/svg">
<path d="M14.1056 9.05499H14.0876C13.9754 9.05499 13.8685 9.0983 13.7891 9.17564C13.7097 9.25298 13.6642 9.35816 13.6642 9.46748C13.7817 11.2226 15.2774 12.5878 17.0821 12.5878C18.888 12.5878 20.3837 11.2225 20.5 9.46748C20.5 9.35817 20.4555 9.25299 20.3762 9.17564C20.2968 9.0983 20.1888 9.05499 20.0766 9.05499H20.0586L17.9595 5.44575C18.2993 4.97863 18.1882 4.33204 17.7118 3.99691C17.2355 3.66281 16.5708 3.76489 16.2225 4.22584C15.7589 3.99897 15.3333 3.70404 14.9607 3.35138C14.2843 2.77699 13.5931 2.18611 12.6066 2.25522V2.25625C12.3208 2.27894 12.0413 2.35525 11.7852 2.48209V2.33566C12.3494 2.1356 12.6839 1.57051 12.5791 0.995101C12.4753 0.419687 11.962 0 11.3618 0C10.7616 0 10.2482 0.418658 10.1445 0.995101C10.0397 1.57051 10.3752 2.13561 10.9384 2.33566V2.54293C10.6547 2.38309 10.3392 2.28513 10.0121 2.25626C9.04254 2.18202 8.33544 2.77703 7.65904 3.35139C7.28644 3.70405 6.86091 3.99795 6.39729 4.22585C6.04902 3.7649 5.38427 3.66282 4.90794 3.99795C4.43161 4.33206 4.32151 4.97861 4.66025 5.44577L2.56119 9.055H2.5432C2.43099 9.055 2.32302 9.09831 2.24362 9.17565C2.16423 9.25299 2.11978 9.35818 2.11978 9.46749C2.13354 10.607 2.79301 11.6454 3.83458 12.1652C3.89386 12.2848 3.98278 12.3869 4.09498 12.4622L1.80117 17.2551C1.42857 17.152 1.03586 17.3283 0.872835 17.6697L0.574321 18.2925V18.2935C0.485407 18.4781 0.475879 18.6906 0.547858 18.8824C0.619837 19.0742 0.765915 19.2309 0.956446 19.3175L5.50597 21.384C5.69651 21.4707 5.9135 21.4799 6.1104 21.4098C6.30834 21.3397 6.46817 21.1964 6.55708 21.0118L6.8556 20.3879C7.01226 20.0641 6.91699 19.6774 6.62696 19.4578L7.24726 18.1615L16.8544 22.8669C17.2058 23.0267 17.6081 23.0432 17.9722 22.9133C18.3364 22.7833 18.6327 22.5173 18.7947 22.1739C18.9577 21.8315 18.9725 21.4397 18.8381 21.0849C18.7026 20.7312 18.4284 20.4435 18.076 20.2868L11.1542 17.3819H17.4345C17.6685 17.3819 17.8579 17.1973 17.8579 16.9694C17.8579 16.7415 17.6685 16.5569 17.4345 16.5569H17.2885C17.2652 15.768 16.6026 15.14 15.7928 15.139H15.5038V15.0844H15.5049C15.5038 14.3316 14.8772 13.7211 14.1044 13.7211H12.6796V11.702C12.6775 11.1545 12.3187 10.6677 11.7852 10.4924V3.46376C12.0339 3.25133 12.343 3.11728 12.6712 3.0781C13.302 3.03479 13.8101 3.46893 14.405 3.97318V3.97421C14.8761 4.42072 15.4265 4.78267 16.0288 5.03945C16.0563 5.18588 16.1167 5.32405 16.2045 5.44575L14.1056 9.05499ZM11.3619 0.829138C11.5196 0.829138 11.6615 0.921946 11.7218 1.06322C11.7821 1.20553 11.7493 1.36844 11.6371 1.47673C11.526 1.58604 11.3587 1.61801 11.2127 1.55923C11.0676 1.50045 10.9724 1.36227 10.9724 1.20863C10.9724 0.999291 11.147 0.829138 11.3619 0.829138ZM8.215 3.97323C8.81094 3.46793 9.33597 3.03689 9.94885 3.07815C10.3193 3.12559 10.6634 3.28852 10.9312 3.54322L10.9386 3.55559V10.4924C10.4061 10.6677 10.0462 11.1544 10.0452 11.702V12.8446C9.96578 12.727 9.85464 12.6332 9.72443 12.5734L7.87837 11.735C8.55477 11.1647 8.94747 10.3387 8.95596 9.46738C8.95596 9.35808 8.9115 9.25289 8.83211 9.17555C8.75272 9.0982 8.64475 9.0549 8.53254 9.0549H8.51454L6.41549 5.44566C6.50334 5.32398 6.56368 5.18579 6.5912 5.03935C7.19457 4.78258 7.74395 4.42077 8.215 3.97323ZM9.06393 13.8223L4.61602 11.8022L4.86689 11.2773L9.3148 13.2975L9.06393 13.8223ZM5.96145 6.33882L7.54076 9.05499H5.96145V6.33882ZM5.53804 4.62496C5.63013 4.62496 5.7127 4.67962 5.74763 4.76211C5.78256 4.84461 5.76351 4.93948 5.69894 5.00341C5.63331 5.06631 5.53593 5.08488 5.45124 5.05085C5.36656 5.01682 5.31152 4.93639 5.31152 4.84667C5.31152 4.72499 5.41314 4.62599 5.53804 4.62496ZM5.11463 6.33779V9.05396H3.53426L5.11463 6.33779ZM3.00818 9.87892L8.06688 9.87995C7.93245 10.4853 7.5535 11.0133 7.01471 11.3432L5.17392 10.5069H5.17498C4.7791 10.3275 4.30911 10.4935 4.12387 10.8792L3.94074 11.2618C3.46124 10.9328 3.12885 10.4389 3.00818 9.87995L3.00818 9.87892ZM4.85636 12.8211L8.1515 14.3184L5.86932 19.0897L2.57417 17.5924L4.85636 12.8211ZM5.81325 20.6129L1.36535 18.5928L1.61622 18.0679L6.06521 20.0891L5.81325 20.6129ZM18.0253 21.8308C17.9565 21.9741 17.8327 22.0855 17.6803 22.1391C17.5321 22.1927 17.368 22.1876 17.2241 22.1247L7.60526 17.4141L7.85401 16.8954L8.93688 17.3491L17.7289 21.0397C18.0348 21.1789 18.1672 21.5328 18.0253 21.8308ZM16.4429 16.5571H9.18975L8.21272 16.1467L8.30058 15.9641H15.7927C16.1357 15.9662 16.4185 16.224 16.4429 16.5571ZM14.6571 15.0845V15.1392H8.69445L8.92944 14.6494V14.6483C8.98236 14.6597 9.03635 14.6659 9.09033 14.6659C9.23959 14.6659 9.38674 14.6236 9.51375 14.5462H14.1045C14.4104 14.5462 14.657 14.7875 14.6581 15.0845L14.6571 15.0845ZM11.8319 13.7213H10.8919V11.7022C10.8919 11.4496 11.1025 11.2454 11.3619 11.2454C11.6212 11.2454 11.8319 11.4496 11.8329 11.7022L11.8319 13.7213ZM16.6586 6.33887V9.05504H15.0793L16.6586 6.33887ZM17.082 11.763C15.888 11.7971 14.8327 11.0113 14.5532 9.88006H19.6119C19.3325 11.0113 18.2771 11.7971 17.082 11.763ZM17.5054 9.05504V6.33887L19.0848 9.05504H17.5054ZM17.082 4.62509C17.1741 4.62509 17.2567 4.67975 17.2916 4.76224C17.3276 4.84474 17.3075 4.93961 17.2429 5.00354C17.1784 5.06644 17.0799 5.08501 16.9952 5.05098C16.9105 5.01695 16.8555 4.93652 16.8555 4.8468C16.8555 4.72512 16.9571 4.62612 17.082 4.62509Z" fill="white"/>
</svg>
