<svg width="34" height="40" viewBox="0 0 34 40" fill="none" xmlns="http://www.w3.org/2000/svg">
<path d="M22.843 15.9256H22.813C22.626 15.9256 22.4478 15.9978 22.3155 16.1267C22.1832 16.2556 22.1073 16.4309 22.1073 16.6131C22.3031 19.5383 24.796 21.8137 27.8038 21.8137C30.8136 21.8137 33.3066 19.5381 33.5003 16.6131C33.5003 16.4309 33.4262 16.2556 33.2939 16.1267C33.1616 15.9978 32.9816 15.9256 32.7946 15.9256H32.7646L29.2662 9.91024C29.8325 9.13169 29.6473 8.05405 28.8534 7.4955C28.0595 6.93866 26.9516 7.1088 26.3711 7.87704C25.5984 7.49894 24.8892 7.00738 24.2682 6.41961C23.1409 5.46231 21.9889 4.4775 20.3446 4.59269V4.59441C19.8683 4.63222 19.4026 4.7594 18.9756 4.9708V4.72674C19.9159 4.39332 20.4734 3.45151 20.2988 2.49249C20.1259 1.53346 19.2703 0.833984 18.2699 0.833984C17.2697 0.833984 16.414 1.53175 16.2411 2.49249C16.0664 3.45151 16.6257 4.39333 17.5643 4.72674V5.0722C17.0914 4.8058 16.5657 4.64253 16.0206 4.59442C14.4046 4.47068 13.2261 5.46237 12.0987 6.41963C11.4777 7.0074 10.7685 7.49723 9.99581 7.87706C9.41536 7.10882 8.30745 6.93868 7.51356 7.49724C6.71967 8.05408 6.53617 9.13167 7.10074 9.91026L3.60231 15.9257H3.57232C3.38531 15.9257 3.20536 15.9978 3.07303 16.1267C2.9407 16.2556 2.86662 16.4309 2.86662 16.6131C2.88956 18.5123 3.98867 20.243 5.72463 21.1093C5.82342 21.3086 5.97162 21.4788 6.15862 21.6043L2.3356 29.5925C1.7146 29.4207 1.06009 29.7145 0.788385 30.2834L0.290861 31.3215V31.3232C0.14267 31.6309 0.12679 31.9849 0.246756 32.3046C0.36672 32.6243 0.610184 32.8855 0.927735 33.0299L8.51027 36.4741C8.82783 36.6184 9.18949 36.6339 9.51765 36.517C9.84756 36.4002 10.1139 36.1613 10.2621 35.8536L10.7597 34.8138C11.0208 34.2741 10.862 33.6297 10.3786 33.2636L11.4124 31.1032L27.4243 38.9454C28.0101 39.2118 28.6804 39.2393 29.2873 39.0227C29.8942 38.8062 30.3882 38.3628 30.6581 37.7905C30.9298 37.2198 30.9545 36.5668 30.7305 35.9755C30.5047 35.3861 30.0477 34.9065 29.4602 34.6453L17.9241 29.8038H28.3912C28.7811 29.8038 29.0969 29.4961 29.0969 29.1163C29.0969 28.7365 28.7811 28.4288 28.3912 28.4288H28.1478C28.109 27.114 27.0046 26.0674 25.655 26.0657H25.1733V25.9746H25.1751C25.1733 24.7199 24.1289 23.7025 22.841 23.7025H20.4664V20.3373C20.4629 19.4247 19.8648 18.6135 18.9756 18.3214V6.60692C19.3902 6.25287 19.9054 6.02944 20.4523 5.96415C21.5037 5.89197 22.3505 6.61554 23.342 7.45594V7.45766C24.1271 8.20184 25.0445 8.8051 26.0483 9.23307C26.0942 9.47712 26.1948 9.70741 26.3412 9.91024L22.843 15.9256ZM18.2702 2.21588C18.5331 2.21588 18.7695 2.37056 18.87 2.60602C18.9706 2.8432 18.9159 3.11472 18.7289 3.2952C18.5436 3.47738 18.2649 3.53066 18.0214 3.4327C17.7797 3.33473 17.6209 3.10443 17.6209 2.84836C17.6209 2.49947 17.912 2.21588 18.2702 2.21588ZM13.0253 7.45603C14.0186 6.61387 14.8936 5.89547 15.9151 5.96424C16.5326 6.0433 17.1059 6.31485 17.5523 6.73935L17.5646 6.75998V18.3213C16.6772 18.6135 16.0774 19.4247 16.0756 20.3373V22.2416C15.9433 22.0456 15.7581 21.8892 15.541 21.7896L12.4643 20.3923C13.5916 19.4418 14.2461 18.0652 14.2603 16.613C14.2603 16.4308 14.1862 16.2555 14.0538 16.1266C13.9215 15.9976 13.7416 15.9255 13.5546 15.9255H13.5246L10.0261 9.91008C10.1726 9.70728 10.2731 9.47697 10.319 9.23291C11.3246 8.80496 12.2402 8.20193 13.0253 7.45603ZM14.4402 23.8712L7.02703 20.5044L7.44515 19.6296L14.8583 22.9964L14.4402 23.8712ZM9.26941 11.3987L11.9016 15.9256H9.26941V11.3987ZM8.56373 8.54225C8.71721 8.54225 8.85482 8.63334 8.91304 8.77084C8.97126 8.90833 8.93951 9.06645 8.83189 9.173C8.72251 9.27784 8.5602 9.30878 8.41906 9.25206C8.27793 9.19535 8.18619 9.06129 8.18619 8.91177C8.18619 8.70896 8.35555 8.54397 8.56373 8.54225ZM7.85804 11.397V15.9239H5.2241L7.85804 11.397ZM4.34729 17.2989L12.7785 17.3006C12.5544 18.3094 11.9228 19.1894 11.0248 19.7394L7.95686 18.3455H7.95863C7.29883 18.0465 6.51551 18.3232 6.20677 18.966L5.90156 19.6036C5.10239 19.0553 4.54841 18.2321 4.3473 17.3006L4.34729 17.2989ZM7.42759 22.2024L12.9195 24.6979L9.11586 32.6501L3.62394 30.1546L7.42759 22.2024ZM9.02241 35.1888L1.60924 31.822L2.02735 30.9472L9.44233 34.3158L9.02241 35.1888ZM29.3759 37.2186C29.2612 37.4575 29.0548 37.6431 28.8008 37.7325C28.5538 37.8219 28.2804 37.8133 28.0404 37.7084L12.0091 29.8574L12.4237 28.993L14.2285 29.7492L28.8818 35.9001C29.3917 36.1321 29.6123 36.7219 29.3759 37.2186ZM26.7384 28.4291H14.6499L13.0215 27.7451L13.168 27.4409H25.6548C26.2264 27.4443 26.6979 27.874 26.7384 28.4291ZM23.7622 25.9749V26.066H13.8244L14.2161 25.2496V25.2479C14.3043 25.2668 14.3942 25.2771 14.4842 25.2771C14.733 25.2771 14.9782 25.2066 15.1899 25.0777H22.8411C23.3509 25.0777 23.762 25.4799 23.7638 25.9749L23.7622 25.9749ZM19.0535 23.7028H17.4868V20.3377C17.4868 19.9166 17.8379 19.5763 18.2701 19.5763C18.7024 19.5763 19.0535 19.9166 19.0552 20.3377L19.0535 23.7028ZM27.098 11.3988V15.9257H24.4658L27.098 11.3988ZM27.8037 20.439C25.8137 20.4957 24.0548 19.1861 23.589 17.3007H32.0202C31.5545 19.1861 29.7955 20.4957 27.8037 20.439ZM28.5094 15.9257V11.3988L31.1416 15.9257H28.5094ZM27.8037 8.54247C27.9572 8.54247 28.0948 8.63356 28.153 8.77105C28.213 8.90855 28.1795 9.06667 28.0719 9.17322C27.9643 9.27806 27.8002 9.30899 27.659 9.25228C27.5179 9.19557 27.4262 9.06151 27.4262 8.91198C27.4262 8.70918 27.5955 8.54419 27.8037 8.54247Z" fill="url(#paint0_linear_1278_12779)"/>
<defs>
<linearGradient id="paint0_linear_1278_12779" x1="46.3791" y1="-14.4122" x2="-17.3507" y2="-4.71846" gradientUnits="userSpaceOnUse">
<stop stop-color="#04B961"/>
<stop offset="1" stop-color="#006C37"/>
</linearGradient>
</defs>
</svg>
