<svg width="21" height="22" viewBox="0 0 21 22" fill="none" xmlns="http://www.w3.org/2000/svg">
<path d="M19 12.0645V16.0645C19 18.8259 16.7614 21.0645 14 21.0645H6C3.23858 21.0645 1 18.8259 1 16.0645V8.06445C1 5.30303 3.23858 3.06445 6 3.06445H10" stroke="#1E1E1E" stroke-width="1.6" stroke-linecap="round"/>
<path d="M15.1721 2.35083C15.9525 1.56919 17.2184 1.56871 17.9994 2.34976L19.4887 3.83901C20.2631 4.6134 20.2711 5.86704 19.5067 6.65131L12.4467 13.8949C11.8823 14.474 11.1082 14.8005 10.2998 14.8005L8.60263 14.8004C7.7498 14.8004 7.06872 14.0895 7.10459 13.2367L7.17869 11.4752C7.21028 10.724 7.52251 10.012 8.05358 9.48011L15.1721 2.35083Z" stroke="#1E1E1E" stroke-width="1.6"/>
<path d="M13.7298 3.93328L17.7438 7.94727" stroke="#1E1E1E" stroke-width="1.6" stroke-linecap="round" stroke-linejoin="round"/>
</svg>
