<svg width="16" height="17" viewBox="0 0 16 17" fill="none" xmlns="http://www.w3.org/2000/svg">
<path d="M12.666 1.83301C13.7706 1.83301 14.666 2.72844 14.666 3.83301V13.166C14.666 14.2706 13.7706 15.166 12.666 15.166H3.33301C2.22844 15.166 1.33301 14.2706 1.33301 13.166V3.83301C1.33301 2.72844 2.22844 1.83301 3.33301 1.83301H12.666ZM3.33301 3.16602C2.96482 3.16602 2.66602 3.46482 2.66602 3.83301V13.166C2.66602 13.5342 2.96482 13.833 3.33301 13.833H12.666C13.0342 13.833 13.333 13.5342 13.333 13.166V3.83301C13.333 3.46482 13.0342 3.16602 12.666 3.16602H3.33301ZM4.19336 11.3594C4.38507 11.1705 4.6718 11.1154 4.91992 11.2197C5.00056 11.2535 5.07495 11.3006 5.13965 11.3594C5.20034 11.4228 5.24757 11.4982 5.2793 11.5801C5.3505 11.7413 5.3505 11.9247 5.2793 12.0859C5.24757 12.1678 5.20034 12.2432 5.13965 12.3066C5.07495 12.3654 5.00056 12.4126 4.91992 12.4463C4.83977 12.4804 4.75313 12.4989 4.66602 12.5C4.48977 12.4975 4.321 12.4282 4.19336 12.3066C4.13267 12.2432 4.08446 12.1678 4.05273 12.0859C3.98167 11.9248 3.98167 11.7412 4.05273 11.5801C4.08446 11.4982 4.13267 11.4228 4.19336 11.3594ZM11.333 11.166C11.7012 11.166 12 11.4648 12 11.833C12 12.2012 11.7012 12.5 11.333 12.5H7.33301C6.96482 12.5 6.66602 12.2012 6.66602 11.833C6.66602 11.4648 6.96482 11.166 7.33301 11.166H11.333ZM4.19336 8.02637C4.38507 7.83734 4.67173 7.78235 4.91992 7.88672C5.00058 7.92047 5.07494 7.96756 5.13965 8.02637C5.26147 8.15412 5.33055 8.32349 5.33301 8.5C5.33625 8.54421 5.33626 8.5886 5.33301 8.63281C5.32153 8.67533 5.30316 8.71592 5.2793 8.75293C5.26471 8.7954 5.24495 8.8359 5.21973 8.87305L5.13965 8.97266C5.07488 9.03152 5.00067 9.07952 4.91992 9.11328C4.83977 9.14744 4.75313 9.16496 4.66602 9.16602C4.48963 9.16348 4.32103 9.0944 4.19336 8.97266C4.06865 8.84692 3.99906 8.67708 4 8.5C4.00105 8.41288 4.01857 8.32624 4.05273 8.24609C4.08328 8.16372 4.13166 8.08891 4.19336 8.02637ZM11.333 7.83301C11.7012 7.83301 12 8.13181 12 8.5C11.9998 8.86804 11.7011 9.16602 11.333 9.16602H7.33301C6.96493 9.16602 6.66619 8.86804 6.66602 8.5C6.66602 8.13181 6.96482 7.83301 7.33301 7.83301H11.333ZM4.19336 4.69336C4.38507 4.5042 4.67166 4.44834 4.91992 4.55273C5.00067 4.58649 5.07488 4.6345 5.13965 4.69336C5.19844 4.7581 5.24557 4.8324 5.2793 4.91309C5.31342 4.99313 5.33191 5.07901 5.33301 5.16602C5.33055 5.34253 5.26147 5.51189 5.13965 5.63965C5.07494 5.69845 5.00058 5.74555 4.91992 5.7793C4.8408 5.81662 4.75347 5.83526 4.66602 5.83301C4.4897 5.83047 4.32102 5.76129 4.19336 5.63965C4.06857 5.51384 3.99898 5.34322 4 5.16602C4.00109 5.07907 4.01866 4.99309 4.05273 4.91309C4.08649 4.8323 4.13448 4.75816 4.19336 4.69336ZM11.333 4.5C11.7011 4.5 11.9998 4.79798 12 5.16602C12 5.53421 11.7012 5.83301 11.333 5.83301H7.33301C6.96482 5.83301 6.66602 5.53421 6.66602 5.16602C6.66619 4.79798 6.96493 4.5 7.33301 4.5H11.333Z" fill="white"/>
</svg>
