<svg id="svg" version="1.1" xmlns="http://www.w3.org/2000/svg" xmlns:xlink="http://www.w3.org/1999/xlink" width="400" height="457.14285714285717" viewBox="0, 0, 400,457.14285714285717"><g id="svgg"><path id="path0" d="M191.613 16.702 L 186.243 32.254 167.619 32.366 L 148.996 32.478 150.446 33.505 C 151.468 34.229,178.493 52.922,178.950 53.221 C 178.974 53.236,176.353 60.880,173.127 70.207 C 169.900 79.534,167.281 87.194,167.307 87.230 C 167.333 87.266,174.354 82.670,182.908 77.018 C 191.462 71.366,198.577 66.741,198.719 66.741 C 198.860 66.741,206.000 71.420,214.586 77.138 C 223.985 83.399,230.150 87.373,230.081 87.127 C 230.018 86.903,227.192 79.495,223.800 70.665 C 220.409 61.836,217.636 54.503,217.639 54.371 C 217.642 54.238,220.179 52.454,223.276 50.406 C 226.372 48.358,233.728 43.486,239.621 39.580 L 250.335 32.478 229.694 32.366 L 209.054 32.254 203.131 16.814 C 199.873 8.322,197.157 1.324,197.095 1.262 C 197.033 1.200,194.566 8.148,191.613 16.702 M201.069 21.987 C 203.039 27.143,205.068 32.441,205.579 33.761 L 206.506 36.161 222.003 36.161 C 230.526 36.161,237.499 36.236,237.498 36.328 C 237.497 36.420,232.014 40.112,225.313 44.531 C 218.613 48.951,213.083 52.642,213.025 52.735 C 212.967 52.827,215.044 58.435,217.639 65.197 C 220.235 71.960,222.321 77.531,222.274 77.577 C 222.228 77.623,216.928 74.156,210.496 69.871 C 201.109 63.619,198.725 62.123,198.409 62.292 C 198.194 62.407,192.771 65.966,186.358 70.201 C 179.946 74.435,174.665 77.864,174.622 77.821 C 174.578 77.778,176.553 71.927,179.011 64.820 L 183.478 51.897 182.999 51.499 C 182.735 51.279,177.689 47.764,171.786 43.686 L 161.052 36.272 174.993 36.161 L 188.935 36.049 191.558 28.460 C 193.001 24.286,194.852 18.931,195.671 16.560 C 196.490 14.189,197.233 12.331,197.323 12.430 C 197.413 12.530,199.098 16.830,201.069 21.987 M186.864 42.752 C 185.734 43.702,185.732 45.134,186.859 46.184 C 187.590 46.865,189.129 46.829,189.845 46.113 C 191.948 44.010,189.137 40.839,186.864 42.752 M197.974 42.840 C 196.536 44.278,197.520 46.652,199.554 46.652 C 200.281 46.652,200.622 46.511,201.133 45.999 C 202.571 44.561,201.587 42.188,199.554 42.188 C 198.826 42.188,198.486 42.328,197.974 42.840 M209.528 42.727 C 207.974 44.167,208.864 46.652,210.935 46.652 C 213.211 46.652,214.172 44.187,212.459 42.745 C 211.570 41.997,210.324 41.989,209.528 42.727 M108.036 74.792 C 93.283 86.075,88.755 103.387,96.065 120.560 L 96.408 121.366 94.209 122.305 C 90.452 123.909,86.821 126.302,83.570 129.315 L 81.985 130.785 81.716 128.841 C 81.012 123.747,79.173 118.780,76.267 114.118 C 74.868 111.875,75.285 111.811,72.502 114.692 C 60.831 126.772,58.935 145.448,67.908 159.933 C 69.704 162.832,69.698 162.892,67.338 165.423 C 64.638 168.319,62.745 171.037,61.103 174.374 C 59.446 177.743,59.727 177.637,58.422 175.386 C 56.062 171.316,52.752 167.625,48.715 164.563 C 47.332 163.513,46.159 162.695,46.109 162.745 C 46.060 162.794,45.546 163.990,44.967 165.402 C 38.309 181.650,43.740 200.173,58.091 210.164 C 58.791 210.651,59.476 211.318,59.613 211.647 C 59.750 211.976,60.039 212.405,60.255 212.600 C 60.629 212.938,60.607 213.061,59.824 215.016 C 58.231 218.996,57.444 222.790,57.216 227.601 L 57.076 230.537 54.976 229.103 C 50.927 226.339,46.356 224.403,41.411 223.360 L 38.839 222.817 38.839 224.790 C 38.839 242.723,51.946 258.015,70.113 261.277 L 70.919 261.422 71.068 263.542 C 71.343 267.449,72.494 272.110,74.082 275.744 C 74.341 276.337,74.554 276.847,74.554 276.877 C 74.554 276.907,73.535 276.703,72.290 276.423 C 67.506 275.348,61.818 275.311,56.878 276.324 C 54.395 276.834,54.507 276.629,55.506 278.828 C 62.661 294.574,78.713 303.434,95.275 300.779 C 96.544 300.576,97.600 300.443,97.621 300.484 C 97.642 300.525,97.892 301.261,98.177 302.121 C 98.931 304.393,100.683 307.981,102.108 310.166 C 102.790 311.213,103.348 312.091,103.347 312.117 C 103.347 312.144,101.614 312.172,99.497 312.180 C 94.207 312.200,90.477 312.954,85.533 315.002 C 83.658 315.779,83.670 315.637,85.274 317.956 C 94.855 331.816,113.061 337.482,128.697 331.470 C 132.181 330.130,131.896 330.108,132.872 331.791 C 134.190 334.065,136.310 336.760,138.534 338.991 L 140.577 341.040 139.652 341.187 C 134.360 342.026,128.769 344.374,124.028 347.748 L 122.275 348.995 123.470 350.069 C 136.929 362.161,155.276 363.706,169.788 353.969 C 171.120 353.076,172.649 352.231,173.185 352.093 L 174.160 351.841 178.683 354.372 L 183.206 356.902 186.477 355.413 L 189.748 353.924 189.014 353.563 C 188.611 353.364,185.535 352.054,182.179 350.652 L 176.077 348.103 176.213 347.321 C 179.515 328.326,170.739 312.048,153.290 304.799 C 151.483 304.048,151.683 303.888,151.196 306.476 C 150.108 312.246,150.893 320.621,153.048 326.237 C 153.105 326.385,152.190 326.164,150.961 325.732 C 147.777 324.613,144.497 323.921,141.073 323.646 C 137.497 323.358,137.798 323.559,138.359 321.833 C 143.334 306.549,137.694 289.616,124.490 280.191 L 122.538 278.797 122.022 279.968 C 119.280 286.193,118.045 293.248,118.712 298.884 C 118.835 299.927,118.918 300.799,118.896 300.821 C 118.874 300.843,118.003 300.314,116.961 299.646 C 114.463 298.043,111.584 296.650,108.716 295.657 C 107.432 295.213,106.354 294.822,106.320 294.788 C 106.286 294.754,106.891 293.477,107.664 291.950 C 114.805 277.845,112.299 261.361,101.187 249.356 L 99.661 247.708 98.324 249.690 C 94.861 254.823,92.664 260.950,92.074 267.127 L 91.920 268.741 89.989 266.951 C 87.399 264.550,84.576 262.569,81.473 260.978 L 78.906 259.661 80.239 258.682 C 93.623 248.849,98.564 229.957,91.867 214.226 L 91.509 213.385 90.230 214.203 C 84.599 217.804,79.166 223.738,76.919 228.742 C 76.502 229.672,76.116 229.980,76.116 229.384 C 76.116 227.349,70.790 219.449,66.894 215.703 L 64.324 213.232 66.146 212.975 C 83.910 210.473,97.959 194.579,97.989 176.950 L 97.991 175.888 97.042 176.029 C 89.882 177.096,83.370 179.782,78.645 183.619 C 78.134 184.035,77.672 184.375,77.619 184.375 C 77.565 184.375,77.463 182.793,77.391 180.859 C 77.205 175.861,76.437 172.082,74.756 167.882 C 73.960 165.893,73.825 166.030,76.093 166.524 C 92.455 170.090,109.832 161.445,117.088 146.129 C 118.304 143.560,118.394 143.721,115.402 143.108 C 109.113 141.821,103.148 141.996,97.519 143.633 L 95.777 144.139 96.132 143.331 C 98.386 138.193,99.549 133.161,99.552 128.531 L 99.554 126.370 100.167 126.557 C 100.505 126.659,101.484 127.016,102.344 127.350 C 118.491 133.630,136.750 127.732,146.668 113.034 C 147.964 111.113,147.980 111.167,145.870 110.366 C 139.918 108.108,132.547 107.189,127.260 108.047 C 125.501 108.332,125.541 108.390,126.491 106.917 C 129.812 101.768,131.828 95.261,132.075 88.895 C 132.228 84.940,132.512 85.248,129.353 85.943 C 124.094 87.099,115.508 91.060,114.411 92.836 C 114.058 93.406,113.818 93.038,113.951 92.132 C 114.481 88.514,112.837 80.434,110.545 75.391 C 109.620 73.354,109.845 73.408,108.036 74.792 M288.654 75.725 C 286.377 80.931,284.992 88.008,285.438 92.157 C 285.522 92.942,285.484 93.094,285.238 92.939 C 285.070 92.832,283.909 92.063,282.657 91.230 C 278.934 88.751,274.990 87.078,270.492 86.069 C 266.737 85.227,267.101 84.909,267.255 88.895 C 267.501 95.233,269.533 101.790,272.840 106.917 C 273.790 108.390,273.829 108.332,272.070 108.047 C 266.783 107.189,259.413 108.108,253.460 110.366 C 251.346 111.169,251.366 111.066,252.880 113.305 C 262.887 128.101,280.737 133.545,297.935 127.046 L 299.777 126.351 299.777 128.304 C 299.777 133.242,301.069 138.677,303.481 143.888 C 303.549 144.034,302.880 143.930,301.854 143.634 C 296.205 142.003,290.139 141.821,284.018 143.100 C 280.877 143.756,280.990 143.543,282.324 146.274 C 289.809 161.598,306.983 170.107,323.214 166.533 C 325.526 166.024,325.392 165.766,324.309 168.642 C 322.670 172.990,321.750 178.361,321.913 182.627 C 321.960 183.872,321.907 184.511,321.763 184.426 C 321.641 184.354,321.138 183.973,320.647 183.579 C 315.805 179.698,309.350 177.045,302.255 176.019 L 301.274 175.877 301.427 178.173 C 302.620 196.122,315.763 210.521,333.196 212.977 L 335.030 213.235 332.485 215.666 C 328.561 219.413,325.502 223.776,323.714 228.178 C 322.964 230.023,323.056 230.030,322.039 228.048 C 320.243 224.550,316.995 220.461,313.885 217.783 C 311.625 215.836,308.007 213.328,307.792 213.559 C 307.517 213.856,306.077 217.909,305.601 219.727 C 301.850 234.056,307.604 250.567,319.199 258.744 L 320.489 259.653 317.890 260.971 C 314.806 262.534,312.040 264.469,309.370 266.933 L 307.422 268.729 307.266 267.121 C 306.629 260.527,303.607 252.614,300.049 248.219 L 299.636 247.710 297.567 250.027 C 286.500 262.423,284.477 281.110,292.799 294.085 L 293.228 294.754 290.643 295.661 C 287.481 296.769,284.779 298.078,282.345 299.679 C 281.332 300.345,280.484 300.866,280.461 300.836 C 280.437 300.806,280.513 299.978,280.629 298.996 C 281.254 293.709,280.177 286.838,277.852 281.271 C 276.719 278.559,277.020 278.603,274.157 280.733 C 261.554 290.106,256.165 306.631,260.861 321.499 C 261.532 323.620,261.860 323.348,258.259 323.653 C 254.594 323.962,251.785 324.550,248.588 325.676 C 247.156 326.180,246.215 326.414,246.278 326.250 C 247.902 322.017,248.520 318.430,248.531 313.170 C 248.540 309.102,248.113 304.735,247.663 304.285 C 247.623 304.245,246.701 304.577,245.614 305.024 C 229.253 311.749,219.877 328.579,222.881 345.828 C 223.091 347.032,223.226 348.051,223.183 348.093 C 223.139 348.135,220.062 349.449,216.346 351.015 C 212.630 352.580,209.617 353.883,209.650 353.912 C 209.683 353.940,211.154 354.627,212.919 355.438 L 216.128 356.914 220.653 354.379 L 225.178 351.843 226.160 352.094 C 226.700 352.231,228.156 353.026,229.396 353.860 C 243.953 363.648,262.548 362.173,275.752 350.183 L 277.062 348.994 275.305 347.737 C 270.693 344.437,264.932 342.023,259.674 341.187 L 258.746 341.039 260.810 338.991 C 262.973 336.843,265.085 334.154,266.475 331.776 C 267.444 330.117,267.266 330.154,269.665 331.121 C 284.060 336.925,300.926 333.120,311.027 321.790 C 312.419 320.229,315.697 315.846,315.569 315.718 C 315.374 315.523,310.615 313.773,309.272 313.402 C 305.911 312.474,303.778 312.198,299.834 312.181 C 297.716 312.173,295.984 312.136,295.983 312.099 C 295.983 312.063,296.472 311.308,297.071 310.420 C 298.489 308.319,300.218 304.838,301.029 302.455 C 301.384 301.412,301.694 300.522,301.718 300.477 C 301.742 300.433,302.445 300.517,303.280 300.664 C 320.190 303.646,336.893 294.650,343.838 278.821 C 344.807 276.614,344.928 276.832,342.452 276.324 C 337.150 275.237,327.132 275.580,324.958 276.923 C 324.690 277.089,324.726 276.957,325.306 275.642 C 326.830 272.189,328.026 267.295,328.277 263.480 L 328.411 261.447 330.746 260.957 C 347.662 257.408,359.669 243.293,360.417 226.078 L 360.559 222.802 357.953 223.352 C 352.932 224.412,347.923 226.559,344.092 229.293 L 342.299 230.573 342.147 227.583 C 341.900 222.731,341.008 218.520,339.440 214.801 L 338.691 213.027 339.323 212.270 C 339.671 211.853,339.960 211.408,339.965 211.281 C 339.970 211.153,340.687 210.547,341.558 209.933 C 354.115 201.080,359.888 185.306,356.029 170.389 C 355.512 168.390,353.573 163.097,353.233 162.757 C 353.190 162.714,352.169 163.407,350.964 164.297 C 346.960 167.252,343.225 171.391,340.831 175.523 C 339.621 177.610,339.818 177.652,338.616 175.055 C 337.196 171.987,334.555 168.109,332.172 165.592 C 329.643 162.921,329.630 162.823,331.400 159.967 C 339.720 146.548,338.769 129.280,329.038 117.076 C 328.184 116.006,324.527 112.277,324.330 112.277 C 324.090 112.277,321.480 116.771,320.571 118.750 C 319.311 121.492,318.342 124.693,317.794 127.926 L 317.315 130.753 315.584 129.145 C 312.435 126.220,308.607 123.731,304.886 122.188 L 302.964 121.391 303.951 118.959 C 310.318 103.286,305.362 85.377,291.847 75.219 C 289.333 73.329,289.730 73.266,288.654 75.725 M199.026 79.743 C 198.432 88.101,194.329 96.290,186.825 104.096 C 180.996 110.159,174.927 114.751,157.366 126.389 C 138.879 138.640,129.931 145.546,122.570 153.247 C 106.396 170.164,99.432 187.607,99.446 211.161 C 99.461 235.064,106.916 252.812,124.025 269.678 C 132.075 277.613,138.476 282.487,157.383 295.076 C 176.683 307.928,183.455 313.275,189.320 320.298 C 195.577 327.790,199.107 336.453,199.107 344.319 C 199.107 345.205,199.162 345.313,199.617 345.313 C 200.109 345.313,200.138 345.205,200.409 342.355 C 201.471 331.187,206.514 322.437,217.411 312.857 C 222.971 307.968,226.638 305.319,242.857 294.476 C 272.452 274.692,283.362 264.265,291.731 247.772 C 303.444 224.689,302.764 193.057,290.078 170.842 C 281.151 155.209,269.960 144.878,241.741 126.216 C 219.744 111.669,212.184 105.341,206.449 96.675 C 202.803 91.166,200.223 83.747,200.223 78.772 C 200.223 77.773,200.178 77.679,199.698 77.679 C 199.195 77.679,199.167 77.766,199.026 79.743 M108.571 80.748 C 110.834 87.646,110.749 95.744,108.383 98.654 C 105.037 102.770,102.201 108.326,101.133 112.856 C 100.920 113.761,100.618 114.237,99.660 115.183 L 98.456 116.373 98.202 115.720 C 93.981 104.873,97.254 90.432,105.926 81.641 C 108.178 79.358,108.121 79.377,108.571 80.748 M293.354 81.556 C 301.664 89.921,304.926 102.682,301.652 114.010 C 300.931 116.506,300.957 116.490,299.677 115.191 C 298.695 114.193,298.521 113.851,297.834 111.565 C 296.517 107.183,294.051 102.508,291.143 98.884 C 289.604 96.966,289.578 96.890,289.296 93.428 C 288.969 89.420,289.458 84.970,290.647 81.121 C 291.201 79.327,291.130 79.316,293.354 81.556 M201.450 93.903 C 205.859 110.663,214.744 121.325,238.783 138.700 C 240.150 139.688,240.195 139.828,239.252 140.157 C 238.151 140.541,237.732 140.461,235.849 139.508 C 233.544 138.341,232.799 138.341,230.385 139.509 C 228.119 140.605,227.833 140.609,225.844 139.580 C 223.482 138.358,222.455 138.341,220.201 139.490 C 217.994 140.614,217.725 140.615,215.537 139.508 C 213.231 138.341,212.486 138.341,210.072 139.509 C 207.791 140.612,207.611 140.612,205.330 139.509 C 202.915 138.341,202.170 138.341,199.865 139.508 C 197.682 140.613,197.407 140.613,195.224 139.508 C 192.919 138.341,192.174 138.341,189.760 139.509 C 187.478 140.612,187.298 140.612,185.017 139.509 C 182.603 138.341,181.858 138.341,179.553 139.508 C 177.366 140.615,177.064 140.615,174.888 139.509 C 173.640 138.874,172.852 138.616,172.164 138.616 C 171.479 138.616,170.676 138.877,169.420 139.509 C 167.218 140.616,166.987 140.615,164.693 139.494 C 163.085 138.708,162.678 138.598,161.671 138.674 L 160.507 138.763 161.448 138.084 C 181.829 123.375,190.545 113.772,195.860 100.173 C 197.471 96.051,199.477 88.026,199.575 85.309 C 199.587 84.979,199.835 86.100,200.127 87.799 C 200.418 89.498,201.013 92.245,201.450 93.903 M128.233 91.016 C 126.057 104.514,118.010 114.497,105.989 118.611 C 103.482 119.469,103.595 119.682,104.384 115.570 C 106.523 104.439,115.322 94.391,126.116 90.754 C 128.358 89.999,128.397 90.003,128.233 91.016 M273.155 90.717 C 284.114 94.444,292.750 104.279,294.941 115.525 C 295.760 119.729,295.888 119.481,293.341 118.613 C 281.465 114.568,272.848 103.864,271.123 91.016 C 270.987 90.006,271.043 89.998,273.155 90.717 M137.516 111.968 C 138.674 112.167,140.166 112.495,140.832 112.698 L 142.043 113.066 140.647 114.689 C 132.837 123.763,119.982 127.917,108.147 125.190 C 105.583 124.600,105.593 124.614,106.789 123.212 C 107.635 122.221,108.119 121.895,109.764 121.206 C 113.397 119.685,117.273 117.180,120.221 114.448 C 122.849 112.012,130.979 110.846,137.516 111.968 M272.433 111.938 C 276.375 112.584,277.562 113.037,279.234 114.534 C 282.403 117.371,289.735 121.875,291.184 121.875 C 291.567 121.875,293.587 124.363,293.368 124.565 C 293.021 124.885,289.125 125.658,286.547 125.918 C 276.467 126.933,265.358 122.444,258.642 114.641 L 257.287 113.066 258.521 112.691 C 262.022 111.625,268.412 111.279,272.433 111.938 M75.335 120.368 C 77.050 123.993,78.035 128.163,78.277 132.815 L 78.411 135.384 77.628 136.610 C 74.991 140.739,72.966 146.382,72.304 151.451 C 72.036 153.509,71.598 154.478,70.449 155.557 L 69.934 156.040 69.124 154.267 C 63.986 143.028,65.327 130.172,72.673 120.237 C 74.408 117.891,74.158 117.879,75.335 120.368 M327.825 121.919 C 334.156 131.475,335.049 143.674,330.194 154.295 L 329.371 156.095 328.405 155.001 C 327.874 154.399,327.399 153.705,327.350 153.460 C 327.300 153.214,327.054 151.723,326.803 150.146 C 326.075 145.582,324.131 140.410,321.734 136.659 C 320.073 134.061,321.460 125.303,324.474 119.356 L 325.058 118.203 325.725 118.979 C 326.091 119.405,327.036 120.729,327.825 121.919 M309.618 129.162 C 318.384 135.449,323.627 145.710,323.657 156.641 C 323.662 158.339,323.726 158.333,320.977 156.895 C 310.821 151.584,304.086 140.764,303.637 129.036 L 303.505 125.594 305.714 126.771 C 306.930 127.418,308.686 128.494,309.618 129.162 M95.692 129.185 C 95.229 141.097,88.326 151.885,77.736 157.246 C 75.609 158.323,75.574 158.289,75.753 155.269 C 76.494 142.724,82.781 132.659,93.527 126.810 C 95.965 125.483,95.841 125.347,95.692 129.185 M164.143 141.332 C 165.508 141.961,166.470 142.262,167.111 142.262 C 167.777 142.262,168.618 141.984,169.929 141.332 C 172.211 140.196,172.021 140.196,174.303 141.337 C 176.723 142.547,177.746 142.570,179.871 141.461 C 182.180 140.258,182.127 140.259,184.432 141.321 C 187.135 142.566,187.931 142.566,190.294 141.321 C 192.436 140.192,192.367 140.192,194.648 141.338 C 196.042 142.038,196.775 142.273,197.556 142.273 C 198.336 142.273,199.074 142.036,200.472 141.338 C 202.746 140.201,202.440 140.201,204.808 141.337 C 207.372 142.567,208.188 142.565,210.662 141.321 C 212.892 140.200,212.694 140.200,214.927 141.321 C 217.426 142.576,218.304 142.578,220.786 141.337 C 223.058 140.201,222.753 140.201,225.120 141.337 C 227.667 142.559,228.466 142.556,231.015 141.318 C 233.307 140.204,233.016 140.204,235.239 141.321 C 237.592 142.502,238.708 142.560,240.573 141.598 L 241.881 140.923 243.876 142.345 C 247.779 145.128,254.683 150.338,254.685 150.502 C 254.686 150.594,254.384 150.670,254.013 150.670 C 253.642 150.670,252.539 151.071,251.563 151.563 C 249.379 152.661,249.354 152.661,247.186 151.563 C 244.789 150.350,243.791 150.350,241.406 151.563 C 239.243 152.662,239.140 152.662,236.965 151.562 C 234.587 150.358,233.646 150.358,231.250 151.563 C 229.070 152.659,229.070 152.659,226.887 151.572 C 225.526 150.896,224.991 150.490,224.597 149.838 C 223.494 148.014,220.933 147.144,218.758 147.856 L 217.596 148.236 216.609 147.326 C 214.624 145.497,212.819 145.505,210.048 147.355 C 208.870 148.141,206.698 150.553,206.422 151.380 C 206.377 151.517,206.025 151.419,205.572 151.142 C 204.308 150.372,202.860 150.498,200.758 151.562 C 199.789 152.052,198.795 152.453,198.549 152.453 C 198.304 152.453,197.310 152.052,196.340 151.562 C 194.164 150.460,192.958 150.385,191.263 151.243 L 190.131 151.817 189.787 151.299 C 189.598 151.014,188.672 150.012,187.730 149.072 C 185.074 146.423,183.973 146.306,180.897 148.348 C 179.730 149.123,179.611 149.155,178.810 148.915 C 177.284 148.458,176.426 148.585,175.503 149.406 C 174.893 149.949,174.301 150.222,173.326 150.411 C 172.589 150.553,171.164 151.071,170.158 151.562 C 167.920 152.656,168.023 152.656,165.848 151.563 C 163.452 150.358,162.511 150.358,160.133 151.562 C 157.958 152.662,157.855 152.662,155.692 151.563 C 153.307 150.350,152.309 150.350,149.912 151.563 C 148.943 152.054,147.961 152.455,147.730 152.455 C 147.114 152.455,144.107 150.889,144.336 150.688 C 148.528 147.002,155.438 142.321,156.764 142.270 C 157.770 142.231,158.463 142.017,159.869 141.311 C 162.065 140.208,161.700 140.207,164.143 141.332 M112.099 146.371 L 112.702 146.540 111.221 148.772 C 104.748 158.526,92.406 164.522,81.061 163.424 C 78.244 163.151,78.327 163.233,79.294 161.675 C 79.953 160.613,80.437 160.179,82.175 159.085 C 85.657 156.895,89.084 153.854,91.446 150.860 C 93.123 148.734,98.530 146.783,104.576 146.123 C 105.833 145.985,111.373 146.168,112.099 146.371 M295.265 146.217 C 300.983 146.837,306.251 148.758,307.823 150.795 C 310.153 153.815,314.236 157.289,318.750 160.091 C 319.335 160.454,320.910 162.870,320.699 163.081 C 320.341 163.439,315.564 163.640,313.024 163.404 C 304.650 162.626,297.476 159.182,291.708 153.173 C 289.880 151.268,286.478 146.706,286.712 146.472 C 287.117 146.067,292.425 145.909,295.265 146.217 M215.336 148.710 L 216.052 149.399 214.555 151.006 C 209.820 156.088,203.788 167.884,203.013 173.573 C 202.931 174.174,202.565 175.920,202.198 177.453 C 201.832 178.986,201.196 182.201,200.785 184.596 C 199.942 189.508,199.783 188.988,200.334 183.127 C 202.185 163.469,206.855 150.188,212.656 148.085 C 213.745 147.690,214.446 147.854,215.336 148.710 M186.825 150.811 C 190.958 155.230,195.661 165.099,198.031 174.330 L 198.919 177.790 198.648 180.665 C 198.498 182.247,198.304 183.402,198.216 183.232 C 198.127 183.063,197.463 181.166,196.740 179.018 C 196.016 176.869,195.374 175.061,195.313 175.000 C 195.251 174.939,194.656 173.532,193.991 171.875 C 190.332 162.766,186.404 155.656,182.932 151.859 L 181.468 150.257 182.125 149.789 C 184.119 148.370,184.649 148.485,186.825 150.811 M221.963 149.892 C 223.542 150.642,224.006 153.186,223.441 158.011 C 223.102 160.909,222.939 161.279,222.564 160.002 C 222.068 158.314,220.071 153.097,219.316 151.516 C 218.668 150.159,218.626 149.965,218.947 149.778 C 219.504 149.453,221.170 149.516,221.963 149.892 M177.840 150.627 C 178.037 150.752,177.894 151.105,177.322 151.907 C 176.289 153.353,175.078 155.882,174.282 158.253 L 173.644 160.156 173.729 157.890 C 173.867 154.202,176.407 149.716,177.840 150.627 M218.111 153.416 C 218.794 154.972,221.652 162.950,221.652 163.304 C 221.652 163.747,219.528 163.291,218.386 162.603 C 215.211 160.688,212.156 160.784,209.399 162.886 L 208.618 163.482 209.798 161.261 C 212.069 156.985,216.334 151.166,217.026 151.397 C 217.153 151.439,217.641 152.348,218.111 153.416 M181.573 153.171 C 182.818 154.546,184.884 157.452,185.985 159.375 L 186.560 160.379 183.514 160.395 C 181.610 160.405,179.737 160.554,178.515 160.793 C 176.493 161.189,175.670 161.072,175.670 160.389 C 175.670 158.684,179.158 151.786,180.021 151.786 C 180.185 151.786,180.884 152.409,181.573 153.171 M144.893 153.348 C 147.358 154.540,148.228 154.540,150.581 153.349 C 152.756 152.248,152.859 152.248,155.022 153.348 C 156.370 154.033,157.036 154.241,157.884 154.241 C 158.732 154.241,159.396 154.034,160.741 153.348 C 161.705 152.857,162.688 152.455,162.926 152.455 C 163.165 152.455,164.190 152.857,165.206 153.348 C 167.659 154.534,168.502 154.534,170.847 153.347 C 173.189 152.162,173.314 152.183,172.644 153.647 C 172.044 154.958,171.537 158.067,171.712 159.368 L 171.823 160.199 170.553 160.435 C 168.133 160.885,165.936 162.324,164.514 164.390 L 163.862 165.338 162.373 164.589 C 160.349 163.570,159.478 163.594,157.231 164.731 C 155.063 165.829,154.626 165.836,152.640 164.808 C 150.323 163.610,149.433 163.595,147.137 164.717 C 144.842 165.839,144.592 165.839,142.357 164.732 C 139.992 163.561,139.232 163.560,136.919 164.731 C 134.831 165.788,134.292 165.824,132.749 165.013 C 132.109 164.676,131.299 164.296,130.950 164.168 L 130.315 163.935 132.321 161.711 C 135.660 158.007,141.838 152.455,142.620 152.455 C 142.855 152.455,143.878 152.857,144.893 153.348 M195.647 153.348 C 197.019 154.046,197.654 154.241,198.549 154.241 C 199.444 154.241,200.079 154.046,201.451 153.348 C 202.417 152.857,203.399 152.455,203.634 152.455 C 204.218 152.455,205.390 153.174,205.264 153.455 C 202.764 159.041,200.942 165.271,199.875 171.875 L 199.713 172.879 198.775 169.978 C 197.114 164.839,194.575 159.045,192.335 155.283 C 191.092 153.193,191.114 153.454,192.132 152.917 C 193.308 152.296,193.662 152.339,195.647 153.348 M236.326 153.348 C 237.667 154.055,238.261 154.241,239.170 154.241 C 240.069 154.241,240.702 154.047,242.076 153.348 C 244.239 152.248,244.342 152.248,246.517 153.349 C 248.870 154.540,249.740 154.540,252.205 153.348 C 253.220 152.857,254.246 152.455,254.484 152.455 C 254.723 152.455,255.706 152.857,256.670 153.348 C 257.634 153.839,258.624 154.241,258.870 154.241 C 260.084 154.241,269.123 163.461,268.415 163.978 C 267.710 164.494,266.584 164.332,264.929 163.475 C 262.580 162.260,261.776 162.243,259.495 163.363 C 257.168 164.505,256.894 164.505,254.568 163.363 C 252.283 162.242,251.424 162.260,249.097 163.479 C 247.169 164.489,246.572 164.487,244.604 163.469 C 242.288 162.270,241.398 162.256,239.102 163.378 C 236.804 164.500,236.479 164.501,234.287 163.392 C 231.952 162.210,231.232 162.215,228.870 163.429 C 226.534 164.630,224.499 164.471,224.680 163.101 C 224.732 162.709,224.920 161.334,225.099 160.045 C 225.277 158.756,225.492 156.682,225.577 155.437 L 225.730 153.174 226.872 153.705 C 228.564 154.493,229.689 154.416,231.818 153.365 C 234.051 152.262,234.263 152.261,236.326 153.348 M172.161 162.891 C 172.226 163.228,172.512 165.601,172.796 168.162 C 173.376 173.387,173.336 173.401,174.235 167.665 L 174.842 163.789 175.609 163.469 C 177.630 162.624,181.505 167.039,184.028 173.062 C 186.780 179.630,188.141 185.201,192.411 207.366 C 194.448 217.944,196.640 227.022,197.865 229.953 L 198.182 230.712 196.962 231.656 C 194.662 233.436,193.335 236.196,192.831 240.249 C 191.515 250.830,193.766 254.663,201.563 255.113 C 204.526 255.285,206.098 255.788,206.322 256.637 C 206.985 259.153,206.986 258.942,206.297 261.281 C 205.938 262.504,205.470 264.258,205.259 265.179 C 205.047 266.099,204.838 266.972,204.793 267.117 C 204.749 267.262,203.527 266.203,202.077 264.763 C 200.628 263.323,198.086 261.003,196.429 259.607 L 193.415 257.069 193.304 258.763 L 193.192 260.457 191.406 258.205 C 190.424 256.966,188.452 254.739,187.023 253.255 L 184.426 250.558 184.101 251.339 L 183.776 252.121 182.879 250.335 C 182.054 248.692,179.945 243.653,179.585 242.463 C 179.480 242.117,179.809 242.356,180.620 243.214 C 184.705 247.539,189.023 245.978,187.085 240.877 L 186.670 239.784 187.587 239.510 C 192.028 238.181,195.514 233.455,195.532 228.739 C 195.536 227.781,195.597 227.801,193.973 228.237 C 193.298 228.418,192.688 228.567,192.617 228.569 C 192.547 228.570,192.713 227.893,192.987 227.065 C 193.260 226.236,193.556 224.915,193.643 224.130 L 193.802 222.702 193.132 222.836 C 192.764 222.909,192.191 223.038,191.859 223.121 L 191.256 223.272 191.692 222.406 C 192.360 221.077,193.365 216.666,192.982 216.744 C 192.975 216.745,192.416 216.895,191.741 217.076 C 191.066 217.257,190.487 217.407,190.454 217.408 C 190.421 217.410,190.632 216.934,190.923 216.350 C 191.934 214.321,192.542 210.579,191.826 210.788 C 189.152 211.569,189.157 211.571,189.826 210.148 C 190.552 208.603,191.319 204.688,190.895 204.688 C 190.803 204.688,190.051 204.875,189.225 205.104 C 188.399 205.333,187.723 205.492,187.723 205.457 C 187.723 205.422,187.980 204.883,188.293 204.260 C 189.136 202.581,189.872 198.655,189.342 198.663 C 189.249 198.665,188.622 198.814,187.946 198.996 C 187.271 199.177,186.705 199.326,186.689 199.328 C 186.672 199.329,186.900 198.734,187.194 198.006 C 188.173 195.582,188.503 192.728,187.779 192.943 C 187.564 193.007,187.113 193.125,186.777 193.205 L 186.165 193.351 186.596 192.377 C 187.010 191.440,187.495 189.076,187.498 187.974 C 187.500 187.287,186.516 187.414,183.729 188.460 L 181.808 189.180 181.803 187.057 C 181.798 185.414,181.680 184.604,181.281 183.482 L 180.765 182.031 181.794 178.588 C 182.877 174.964,182.876 174.868,181.762 174.645 L 181.061 174.505 180.389 176.705 C 180.020 177.916,179.550 179.495,179.345 180.215 C 179.130 180.969,178.670 181.867,178.258 182.335 C 177.192 183.550,176.220 184.855,175.852 185.567 L 175.525 186.200 174.577 184.745 C 173.684 183.375,172.298 181.928,170.909 180.915 C 170.299 180.471,170.294 180.446,169.846 175.446 C 169.284 169.167,169.337 169.419,168.578 169.423 C 167.375 169.430,167.366 169.473,167.738 173.344 C 168.200 178.154,168.206 178.049,167.422 178.454 C 166.466 178.948,166.159 178.894,164.110 177.870 C 161.664 176.647,160.898 176.647,158.384 177.870 C 156.060 179.000,156.201 179.000,153.972 177.879 C 151.503 176.637,150.657 176.635,148.207 177.865 C 145.940 179.004,146.024 179.004,143.767 177.870 C 141.356 176.660,140.643 176.660,138.016 177.870 C 136.912 178.379,135.874 178.795,135.711 178.795 C 135.547 178.795,134.577 178.379,133.556 177.870 C 132.222 177.206,131.420 176.945,130.712 176.945 C 130.002 176.945,129.212 177.203,127.885 177.870 C 125.623 179.006,125.733 179.007,123.373 177.832 L 121.440 176.870 122.725 174.652 C 125.076 170.594,128.298 166.074,129.037 165.799 C 129.544 165.610,130.204 165.829,132.031 166.794 C 133.972 167.820,135.080 167.773,137.485 166.566 C 139.760 165.423,139.459 165.424,141.752 166.559 C 144.286 167.813,145.196 167.812,147.747 166.557 C 149.889 165.503,150.027 165.508,152.226 166.714 C 154.281 167.841,155.341 167.809,157.869 166.546 C 159.270 165.845,159.930 165.627,160.308 165.742 C 161.008 165.954,162.947 167.003,162.944 167.167 C 162.942 167.240,162.652 168.680,162.299 170.368 C 161.946 172.056,161.686 173.438,161.721 173.438 C 161.757 173.438,162.458 172.534,163.280 171.430 C 165.037 169.071,166.501 167.696,168.322 166.694 C 169.781 165.893,169.787 165.881,169.302 164.944 C 168.878 164.125,168.911 164.122,167.327 165.077 C 165.684 166.068,165.543 165.947,166.777 164.604 C 168.608 162.610,171.904 161.561,172.161 162.891 M187.145 162.471 C 187.883 162.631,189.555 165.978,192.331 172.852 L 193.763 176.396 194.084 180.107 C 194.261 182.147,194.515 185.424,194.648 187.388 C 194.909 191.223,195.224 210.677,195.023 210.491 C 194.957 210.429,194.183 206.612,193.304 202.008 C 188.594 177.349,185.685 168.840,180.142 163.504 L 179.215 162.612 179.953 162.474 C 180.924 162.292,186.313 162.290,187.145 162.471 M215.960 163.478 L 216.629 163.767 215.656 164.267 C 211.128 166.592,208.208 174.453,205.122 192.634 C 204.632 195.519,203.885 199.587,203.460 201.674 C 203.036 203.761,202.481 207.176,202.227 209.263 C 201.659 213.925,200.989 216.963,199.568 221.317 C 198.413 224.855,198.312 224.917,198.656 221.875 C 198.773 220.831,199.325 215.056,199.882 209.040 C 202.140 184.636,203.772 175.651,207.192 168.800 C 209.402 164.375,212.988 162.198,215.960 163.478 M234.138 165.428 C 236.120 166.469,237.261 166.441,239.509 165.297 C 241.558 164.255,242.009 164.257,244.042 165.316 C 246.271 166.477,247.365 166.479,249.577 165.324 C 251.627 164.254,252.176 164.252,254.253 165.314 C 256.502 166.463,257.543 166.460,259.821 165.298 C 261.858 164.258,262.468 164.255,264.320 165.272 C 266.130 166.266,267.217 166.444,268.527 165.964 C 269.079 165.761,269.700 165.542,269.907 165.477 C 270.492 165.291,274.656 171.088,277.085 175.468 C 278.390 177.820,278.204 177.932,275.329 176.534 C 272.868 175.337,272.083 175.340,269.606 176.554 C 267.354 177.658,267.429 177.658,265.267 176.563 C 262.868 175.349,261.859 175.349,259.463 176.562 C 257.287 177.663,257.259 177.663,254.991 176.534 C 252.561 175.324,251.710 175.327,249.265 176.555 C 247.066 177.659,247.130 177.659,244.931 176.555 C 242.487 175.327,241.636 175.324,239.205 176.534 C 236.938 177.663,236.910 177.663,234.733 176.562 C 233.764 176.071,232.841 175.670,232.682 175.670 C 232.507 175.670,232.336 175.252,232.246 174.609 C 231.699 170.665,230.945 168.358,229.677 166.755 L 228.807 165.654 229.585 165.173 C 231.220 164.162,231.790 164.194,234.138 165.428 M220.493 166.574 C 222.576 168.433,224.017 170.128,224.332 171.090 C 224.568 171.813,224.651 171.899,224.773 171.551 C 224.899 171.193,225.113 171.373,226.096 172.671 L 227.269 174.219 225.520 174.361 C 224.559 174.439,223.596 174.576,223.380 174.665 C 223.101 174.779,222.723 174.587,222.072 173.998 C 218.086 170.397,214.425 172.759,210.025 181.769 C 209.176 183.506,208.482 184.867,208.482 184.793 C 208.482 184.458,209.682 179.376,210.188 177.567 C 213.013 167.477,216.880 163.350,220.493 166.574 M226.493 166.516 C 228.469 167.650,229.343 169.222,230.026 172.867 C 230.484 175.309,230.426 175.354,229.143 173.556 C 228.568 172.751,227.301 171.127,226.326 169.948 C 223.644 166.703,223.730 164.932,226.493 166.516 M23.845 179.737 C 17.253 192.675,15.240 196.944,12.605 203.573 C -4.724 247.175,-4.147 295.556,14.219 338.839 C 40.839 401.577,102.501 446.984,172.879 455.675 C 174.475 455.872,176.936 456.181,178.348 456.361 C 186.717 457.431,212.935 457.499,220.201 456.470 C 221.060 456.348,223.810 455.995,226.311 455.686 C 313.753 444.869,384.431 379.072,397.202 296.595 C 402.430 262.833,397.997 229.214,384.098 197.210 C 382.142 192.706,369.210 167.130,369.200 167.745 C 369.198 167.868,370.099 173.845,371.201 181.027 C 374.657 203.536,375.227 214.182,373.761 228.845 C 364.433 322.147,274.501 389.533,176.186 376.889 C 84.297 365.071,17.730 287.246,25.458 200.670 C 25.870 196.060,26.330 192.703,28.254 180.272 C 29.297 173.532,30.121 167.929,30.084 167.820 C 30.048 167.711,27.240 173.074,23.845 179.737 M71.424 169.736 C 75.928 181.125,73.403 194.885,65.137 203.997 L 64.091 205.151 63.635 204.121 C 58.639 192.827,60.794 178.718,68.963 169.226 C 70.555 167.377,70.486 167.363,71.424 169.736 M332.622 172.199 C 339.001 181.660,340.160 193.758,335.686 204.195 L 335.272 205.160 333.922 203.640 C 325.610 194.289,323.355 180.117,328.351 168.638 L 328.837 167.522 330.056 168.862 C 330.726 169.598,331.881 171.100,332.622 172.199 M50.378 171.056 C 55.175 176.036,58.208 181.799,57.624 184.821 C 56.816 189.002,57.275 196.884,58.580 201.219 C 58.878 202.210,58.866 202.401,58.408 203.864 L 57.914 205.440 55.909 203.446 C 47.339 194.921,43.824 182.131,47.001 171.030 C 47.815 168.185,47.612 168.183,50.378 171.056 M352.186 170.536 C 355.613 181.776,352.158 194.765,343.432 203.453 L 341.421 205.456 340.933 203.895 L 340.444 202.335 340.982 200.331 C 342.173 195.894,342.465 190.905,341.827 185.872 C 341.485 183.175,341.487 182.957,341.859 181.965 C 343.244 178.277,345.882 174.241,349.020 171.011 C 351.580 168.375,351.530 168.383,352.186 170.536 M219.706 174.631 C 221.071 175.201,221.104 175.516,219.883 176.307 C 217.663 177.745,215.176 181.027,212.982 185.414 C 212.358 186.660,211.734 187.718,211.595 187.765 C 211.456 187.811,211.263 188.247,211.166 188.735 C 211.069 189.222,210.168 191.730,209.164 194.308 C 208.160 196.886,206.883 200.182,206.325 201.633 C 205.768 203.083,205.280 204.239,205.242 204.200 C 204.642 203.593,207.540 192.673,209.830 186.913 C 213.579 177.484,216.838 173.432,219.706 174.631 M227.232 176.401 C 228.531 177.050,228.855 179.117,228.317 183.313 C 228.021 185.625,227.977 185.608,227.025 182.813 C 226.628 181.646,225.859 179.749,225.317 178.597 C 224.149 176.118,224.193 176.390,224.944 176.276 C 226.135 176.096,226.680 176.126,227.232 176.401 M223.692 179.576 C 224.516 181.255,227.009 188.477,227.009 189.184 C 227.009 189.726,226.195 189.554,224.330 188.616 C 221.962 187.425,221.071 187.425,218.527 188.616 C 216.278 189.669,216.260 189.670,214.782 188.934 L 213.629 188.359 214.766 186.088 C 216.858 181.912,218.876 179.250,221.077 177.767 C 222.416 176.864,222.332 176.806,223.692 179.576 M242.657 179.074 C 243.022 180.286,243.135 181.195,243.108 182.701 C 243.088 183.806,243.222 185.614,243.407 186.719 C 243.864 189.458,243.868 189.444,242.888 188.559 C 242.413 188.130,241.861 187.688,241.661 187.576 C 241.459 187.463,241.057 186.547,240.759 185.523 C 240.113 183.300,240.177 183.374,239.189 183.700 C 238.254 184.009,238.275 183.881,238.856 185.714 C 239.187 186.756,239.337 187.921,239.389 189.844 C 239.454 192.239,239.737 194.605,240.110 195.871 C 240.206 196.196,239.977 196.075,239.262 195.422 C 238.722 194.930,238.000 194.325,237.656 194.077 C 237.173 193.730,236.907 193.201,236.487 191.757 C 236.188 190.728,235.908 189.852,235.865 189.808 C 235.794 189.737,234.367 190.161,234.187 190.307 C 234.145 190.341,234.377 191.296,234.703 192.428 C 235.115 193.861,235.253 194.741,235.156 195.317 C 235.079 195.772,235.129 197.174,235.267 198.431 C 235.554 201.034,235.530 201.110,234.645 200.480 C 234.121 200.107,233.899 199.652,233.485 198.112 C 232.951 196.128,232.873 196.052,231.759 196.440 L 231.086 196.675 231.636 198.505 C 232.056 199.901,232.179 200.788,232.154 202.249 C 232.126 203.940,232.328 205.938,232.724 207.874 L 232.850 208.494 231.736 207.666 C 230.679 206.880,230.596 206.741,230.118 204.963 L 229.614 203.089 228.816 203.239 C 227.657 203.456,227.667 203.417,228.261 205.351 C 228.688 206.742,228.824 207.748,228.884 209.981 C 228.926 211.551,229.041 213.186,229.138 213.616 L 229.315 214.397 228.416 213.588 C 227.921 213.144,227.346 212.684,227.138 212.568 C 226.808 212.383,226.735 211.648,226.554 206.680 C 226.277 199.044,225.698 196.585,223.893 195.368 C 222.732 194.585,221.820 194.701,220.649 195.782 L 219.655 196.697 218.718 195.895 C 216.745 194.206,213.940 193.732,211.935 194.747 C 211.337 195.050,210.830 195.276,210.808 195.249 C 210.764 195.195,212.702 190.349,212.812 190.239 C 212.850 190.201,213.423 190.421,214.086 190.730 C 215.850 191.551,216.937 191.481,219.169 190.402 C 220.185 189.911,221.201 189.509,221.429 189.509 C 221.656 189.509,222.673 189.911,223.688 190.402 C 225.036 191.054,225.817 191.295,226.580 191.295 L 227.626 191.295 228.574 194.699 C 229.096 196.571,229.554 198.139,229.594 198.184 C 229.633 198.229,229.605 196.163,229.531 193.593 C 229.413 189.496,229.457 188.509,229.884 185.587 C 230.152 183.754,230.443 181.558,230.532 180.706 L 230.692 179.157 232.695 182.423 C 233.797 184.219,234.718 185.669,234.743 185.644 C 234.768 185.619,234.344 183.960,233.801 181.959 C 232.532 177.285,232.501 177.500,234.297 178.453 C 236.366 179.551,237.487 179.531,239.732 178.355 C 242.047 177.142,242.076 177.149,242.657 179.074 M254.438 178.348 C 255.797 179.041,256.443 179.241,257.317 179.241 C 258.202 179.241,258.806 179.049,260.129 178.348 C 262.211 177.245,262.416 177.245,264.597 178.349 C 266.958 179.544,267.845 179.544,270.259 178.348 C 272.469 177.253,272.622 177.251,274.621 178.292 C 275.978 178.999,276.445 179.129,277.625 179.129 L 279.022 179.129 280.051 181.566 C 281.043 183.914,282.422 187.750,282.309 187.847 C 280.714 189.215,278.958 189.349,276.847 188.263 C 274.750 187.184,273.656 187.122,271.875 187.980 C 268.979 189.376,268.913 189.379,266.635 188.218 C 264.500 187.130,263.385 187.131,261.272 188.223 C 258.591 189.608,256.473 189.156,256.473 187.200 C 256.473 186.811,256.377 186.157,256.259 185.746 C 256.071 185.090,256.153 184.783,256.936 183.227 C 257.911 181.286,257.911 181.214,256.917 180.803 C 256.104 180.466,256.281 180.296,255.166 182.478 C 254.611 183.565,253.734 184.805,252.924 185.647 L 251.595 187.031 250.379 185.536 C 248.767 183.551,246.575 181.332,245.703 180.802 C 245.141 180.460,244.146 178.571,244.528 178.571 C 244.561 178.571,244.949 178.722,245.390 178.906 C 246.771 179.483,247.960 179.337,249.912 178.349 C 252.092 177.246,252.274 177.246,254.438 178.348 M122.856 179.688 C 124.169 180.353,124.886 180.580,125.670 180.580 C 126.453 180.580,127.170 180.353,128.483 179.688 C 130.646 178.594,130.878 178.590,132.861 179.616 C 135.213 180.834,136.231 180.849,138.577 179.703 C 140.863 178.585,140.988 178.585,143.169 179.688 C 144.482 180.353,145.199 180.580,145.982 180.580 C 146.766 180.580,147.482 180.353,148.796 179.688 C 150.972 178.587,151.100 178.587,153.376 179.688 C 154.610 180.284,155.526 180.580,156.138 180.580 C 156.751 180.580,157.667 180.284,158.901 179.688 C 161.182 178.584,161.305 178.585,163.504 179.709 C 165.189 180.570,165.374 180.615,166.755 180.506 L 168.220 180.390 168.029 181.880 C 167.648 184.854,168.305 188.367,169.703 190.831 C 170.290 191.867,170.327 192.018,169.960 191.876 C 169.724 191.784,169.253 191.654,168.913 191.585 C 168.459 191.493,167.549 190.576,165.493 188.137 L 162.692 184.814 162.050 185.320 C 161.185 186.002,161.195 186.035,162.828 187.936 C 164.390 189.754,164.413 189.869,163.269 190.084 C 162.631 190.204,162.161 190.065,160.654 189.311 C 158.181 188.075,157.225 188.071,154.822 189.287 C 152.658 190.382,152.686 190.382,150.419 189.286 C 149.085 188.641,148.288 188.393,147.545 188.393 C 146.802 188.393,146.004 188.641,144.670 189.286 C 143.655 189.777,142.649 190.179,142.435 190.179 C 142.221 190.179,141.256 189.777,140.290 189.286 C 137.905 188.073,136.907 188.074,134.510 189.287 C 132.346 190.382,132.373 190.382,130.107 189.286 C 128.772 188.641,127.975 188.393,127.232 188.393 C 126.489 188.393,125.692 188.641,124.358 189.286 C 123.342 189.777,122.337 190.179,122.123 190.179 C 121.909 190.179,120.944 189.777,119.978 189.286 C 119.012 188.795,117.938 188.393,117.593 188.393 C 116.758 188.393,116.775 188.238,117.974 184.929 C 119.305 181.258,120.441 178.794,120.802 178.796 C 120.962 178.796,121.887 179.198,122.856 179.688 M93.709 181.864 C 92.119 192.262,84.566 202.080,74.698 206.577 C 72.959 207.370,68.583 208.836,68.425 208.678 C 68.095 208.348,69.024 205.257,69.711 204.402 C 72.036 201.511,74.272 197.298,75.574 193.355 L 76.405 190.840 78.582 188.751 C 82.132 185.343,86.314 182.820,90.990 181.263 C 93.911 180.291,93.949 180.300,93.709 181.864 M308.268 181.253 C 314.765 183.376,322.626 189.073,323.423 192.235 C 324.308 195.746,327.201 201.434,329.612 204.402 C 330.304 205.255,331.240 208.343,330.907 208.676 C 330.705 208.878,325.497 207.015,323.593 206.059 C 314.339 201.410,307.565 192.437,305.750 182.422 C 305.349 180.213,305.240 180.264,308.268 181.253 M172.080 184.546 C 174.551 187.436,175.472 192.784,173.406 192.244 C 171.773 191.817,169.866 187.383,169.866 184.014 L 169.866 182.559 170.525 183.028 C 170.887 183.286,171.587 183.969,172.080 184.546 M247.678 185.315 C 248.590 186.333,249.596 187.537,249.914 187.991 L 250.492 188.818 250.021 189.480 C 249.761 189.844,249.111 190.963,248.575 191.965 L 247.601 193.787 247.100 193.083 C 246.334 192.007,245.387 187.925,244.983 183.957 L 244.838 182.535 245.429 183.000 C 245.754 183.255,246.766 184.297,247.678 185.315 M179.876 187.864 L 179.797 190.354 178.667 191.550 C 178.046 192.207,177.353 193.028,177.127 193.373 C 176.335 194.584,176.059 193.766,176.304 190.925 C 176.533 188.255,176.961 187.109,178.534 184.951 L 179.335 183.853 179.645 184.614 C 179.866 185.155,179.933 186.093,179.876 187.864 M198.242 189.621 C 198.344 189.866,198.667 190.921,198.958 191.964 L 199.489 193.862 199.094 197.433 C 198.877 199.397,198.318 205.221,197.852 210.376 C 197.092 218.775,196.977 219.652,196.739 218.832 C 196.552 218.185,196.528 217.171,196.657 215.376 C 197.171 208.207,197.141 200.535,196.546 186.942 L 196.428 184.263 197.242 186.719 C 197.689 188.069,198.139 189.375,198.242 189.621 M254.618 191.048 C 254.470 195.465,254.095 197.582,253.076 199.768 L 252.395 201.228 251.986 198.839 C 251.761 197.525,251.424 196.084,251.237 195.635 C 250.912 194.858,250.927 194.732,251.568 192.917 C 252.160 191.239,252.199 190.985,251.898 190.764 C 251.521 190.488,251.916 189.764,253.524 187.781 C 254.680 186.356,254.767 186.616,254.618 191.048 M265.720 189.884 C 266.971 190.498,267.134 190.848,266.169 190.848 C 264.963 190.848,259.491 193.123,257.015 194.653 L 256.317 195.084 256.407 193.357 C 256.534 190.922,256.632 190.549,257.096 190.745 C 258.347 191.274,259.692 191.110,261.496 190.210 C 263.634 189.142,264.129 189.104,265.720 189.884 M276.387 190.123 C 278.459 191.209,279.888 191.265,281.664 190.332 C 282.321 189.986,282.886 189.735,282.919 189.774 C 283.076 189.954,284.821 197.986,284.821 198.526 C 284.821 198.547,284.387 198.565,283.857 198.565 C 283.190 198.565,282.346 198.832,281.123 199.430 C 278.917 200.508,278.507 200.507,276.400 199.423 C 274.156 198.269,273.191 198.256,271.079 199.353 C 268.867 200.503,268.605 200.533,267.068 199.810 L 265.744 199.187 266.797 198.570 C 267.845 197.956,267.848 197.951,267.520 197.317 C 267.067 196.440,266.810 196.332,266.173 196.749 C 265.462 197.216,265.467 197.194,266.522 195.393 C 267.016 194.551,267.516 193.510,267.633 193.080 C 267.875 192.191,268.004 192.097,271.205 190.474 C 273.995 189.060,274.317 189.038,276.387 190.123 M246.060 194.817 C 246.690 195.727,246.693 195.744,246.355 196.807 C 246.167 197.397,245.752 198.758,245.433 199.833 C 245.113 200.907,244.780 201.782,244.691 201.777 C 243.466 201.712,241.272 194.579,241.304 190.763 L 241.314 189.621 243.369 191.759 C 244.499 192.936,245.710 194.312,246.060 194.817 M185.268 190.170 C 185.268 191.548,183.467 194.260,182.002 195.086 C 181.339 195.461,180.403 196.122,179.923 196.556 C 177.002 199.195,176.985 196.006,179.904 193.087 C 181.448 191.543,185.268 189.466,185.268 190.170 M119.285 191.072 C 121.638 192.263,122.508 192.263,124.973 191.071 C 125.988 190.580,127.005 190.179,127.232 190.179 C 127.459 190.179,128.476 190.580,129.492 191.071 C 131.956 192.263,132.826 192.263,135.180 191.072 C 136.149 190.582,137.143 190.181,137.388 190.181 C 137.634 190.181,138.628 190.582,139.597 191.072 C 141.976 192.276,142.917 192.276,145.313 191.071 C 146.289 190.580,147.284 190.179,147.523 190.179 C 147.762 190.179,148.789 190.580,149.804 191.071 C 152.269 192.263,153.139 192.263,155.492 191.072 C 156.461 190.582,157.455 190.181,157.701 190.181 C 157.946 190.181,158.940 190.582,159.910 191.072 C 161.896 192.078,163.189 192.221,164.728 191.605 C 165.859 191.153,166.354 191.622,166.757 193.527 C 166.899 194.202,167.295 195.558,167.636 196.540 C 167.977 197.522,168.408 199.129,168.593 200.112 C 168.778 201.094,168.995 202.061,169.076 202.260 C 169.414 203.095,168.121 202.971,166.004 201.964 C 163.403 200.729,162.689 200.718,160.402 201.879 C 159.454 202.360,158.378 202.753,158.010 202.753 C 157.642 202.753,156.576 202.360,155.641 201.879 C 153.379 200.716,152.532 200.730,150.011 201.972 C 147.722 203.100,148.037 203.099,145.747 201.981 C 143.212 200.743,142.357 200.728,140.086 201.881 C 137.944 202.967,137.445 202.967,135.328 201.879 C 133.066 200.716,132.220 200.730,129.698 201.972 C 127.409 203.100,127.725 203.099,125.435 201.981 C 122.896 200.741,122.046 200.727,119.761 201.887 C 117.681 202.943,116.963 202.966,115.333 202.033 L 114.126 201.343 114.537 198.651 C 115.042 195.339,116.036 190.834,116.344 190.458 C 116.727 189.990,117.442 190.140,119.285 191.072 M265.625 192.980 C 265.625 193.257,264.825 194.650,263.554 196.585 L 262.205 198.639 260.720 199.090 C 259.903 199.338,258.462 199.893,257.519 200.323 L 255.804 201.105 255.804 199.341 L 255.804 197.577 257.087 196.799 C 260.080 194.983,265.625 192.503,265.625 192.980 M170.539 194.203 C 172.753 195.319,174.637 197.441,175.240 199.499 C 175.606 200.751,175.462 200.829,174.299 200.010 C 173.764 199.633,172.723 199.087,171.987 198.797 C 170.689 198.286,170.622 198.219,169.824 196.624 C 168.294 193.566,168.421 193.135,170.539 194.203 M175.100 195.050 L 175.757 195.871 174.879 195.089 C 174.396 194.660,173.957 194.283,173.905 194.252 C 173.852 194.222,173.952 194.204,174.126 194.213 C 174.300 194.221,174.738 194.598,175.100 195.050 M185.938 195.852 C 185.938 197.244,183.612 200.637,181.939 201.686 C 177.838 204.257,177.027 202.172,180.700 198.500 C 182.537 196.663,185.938 194.944,185.938 195.852 M215.681 196.301 C 216.621 196.636,218.052 197.657,218.229 198.118 C 218.293 198.285,217.745 199.254,217.012 200.271 C 213.213 205.539,204.658 219.389,200.427 227.121 C 198.903 229.905,199.117 228.736,201.455 221.501 C 208.842 198.642,211.089 194.662,215.681 196.301 M240.384 199.442 C 242.114 201.489,243.750 203.850,243.750 204.301 C 243.750 205.079,242.993 206.693,242.325 207.341 L 241.587 208.056 240.269 206.350 C 239.544 205.411,238.760 204.409,238.527 204.122 C 237.987 203.456,237.322 200.466,237.139 197.879 L 236.996 195.871 237.935 196.763 C 238.452 197.254,239.554 198.460,240.384 199.442 M223.820 198.707 C 224.284 200.076,224.793 204.421,224.766 206.785 C 224.757 207.586,224.618 207.324,223.652 204.688 C 223.045 203.030,222.196 200.957,221.765 200.080 C 220.817 198.151,220.821 198.291,221.694 197.389 C 222.644 196.410,223.147 196.722,223.820 198.707 M249.988 198.351 C 251.065 204.537,250.748 208.484,248.828 212.780 C 248.215 214.149,246.595 215.625,245.703 215.625 C 245.641 215.625,245.540 214.093,245.480 212.221 C 245.419 210.349,245.250 208.499,245.103 208.111 C 244.866 207.483,244.915 207.209,245.547 205.655 C 245.938 204.693,246.294 203.633,246.338 203.299 C 246.489 202.155,249.122 196.875,249.542 196.875 C 249.646 196.875,249.847 197.539,249.988 198.351 M220.401 201.618 C 220.804 202.508,221.713 204.889,222.420 206.909 C 223.128 208.930,223.947 211.127,224.242 211.792 C 224.674 212.770,224.779 213.392,224.789 215.039 C 224.795 216.159,224.934 217.879,225.097 218.862 C 225.260 219.844,225.358 220.686,225.314 220.734 C 224.976 221.107,222.487 218.019,222.036 216.667 C 221.981 216.502,220.716 216.987,220.342 217.317 C 220.297 217.357,220.613 218.031,221.044 218.816 C 221.710 220.029,221.811 220.394,221.714 221.256 L 221.600 222.269 219.673 222.363 C 215.755 222.554,212.939 224.695,210.039 229.688 C 209.504 230.608,209.036 231.403,208.999 231.453 C 208.961 231.504,208.438 231.277,207.835 230.949 C 206.110 230.010,204.934 229.653,203.054 229.497 L 201.308 229.353 204.255 224.219 C 209.482 215.110,219.047 200.000,219.587 200.000 C 219.632 200.000,219.998 200.728,220.401 201.618 M173.265 201.595 C 174.960 202.683,176.448 204.469,176.986 206.063 C 177.804 208.484,177.622 208.726,175.951 207.444 C 175.366 206.995,174.467 206.441,173.951 206.211 C 172.657 205.633,171.144 203.214,170.654 200.937 L 170.495 200.200 171.350 200.557 C 171.820 200.754,172.681 201.221,173.265 201.595 M276.004 201.358 C 278.259 202.507,279.286 202.491,281.648 201.268 C 283.324 200.401,284.359 200.239,284.883 200.763 C 285.382 201.262,286.104 212.745,285.634 212.713 C 285.560 212.708,284.837 212.394,284.028 212.015 C 282.166 211.144,280.997 211.227,278.940 212.378 C 277.156 213.375,276.490 213.372,274.551 212.356 C 272.250 211.151,271.318 211.135,269.012 212.262 C 266.717 213.383,266.467 213.384,264.232 212.277 C 262.095 211.218,261.054 211.137,259.524 211.912 C 258.344 212.509,258.303 212.486,258.942 211.589 C 259.194 211.234,259.801 210.091,260.289 209.048 C 261.147 207.218,261.231 207.121,262.736 206.227 C 264.626 205.104,264.583 205.168,264.027 204.290 C 263.657 203.706,263.502 203.617,263.164 203.798 C 262.938 203.919,262.701 204.018,262.637 204.018 C 262.552 204.018,263.790 201.429,264.229 200.690 C 264.258 200.639,265.067 200.966,266.024 201.415 C 268.320 202.492,269.085 202.482,271.340 201.340 C 273.528 200.233,273.798 200.234,276.004 201.358 M262.054 200.792 C 262.054 201.031,261.307 202.366,260.238 204.038 L 259.155 205.732 257.355 206.325 C 256.365 206.651,254.820 207.257,253.922 207.673 L 252.288 208.427 252.401 206.948 C 252.463 206.134,252.612 205.344,252.733 205.192 C 253.562 204.148,262.054 200.139,262.054 200.792 M186.977 202.565 C 185.938 205.614,182.888 208.451,180.533 208.560 C 177.645 208.693,181.806 203.463,186.042 201.636 C 187.332 201.079,187.445 201.192,186.977 202.565 M235.921 204.142 C 236.802 205.070,238.167 206.699,238.953 207.763 L 240.383 209.697 239.941 210.373 C 239.698 210.745,239.125 211.726,238.667 212.554 C 237.660 214.376,237.808 214.367,236.501 212.683 C 235.185 210.990,234.571 208.740,234.057 203.739 C 233.888 202.094,233.997 202.118,235.921 204.142 M124.804 203.795 C 126.047 204.396,126.953 204.688,127.576 204.688 C 128.206 204.688,129.076 204.403,130.303 203.795 C 132.546 202.684,132.867 202.685,134.997 203.816 C 137.177 204.974,138.255 204.955,140.611 203.721 C 142.575 202.692,142.929 202.698,145.143 203.795 C 146.379 204.407,147.239 204.688,147.879 204.688 C 148.519 204.688,149.380 204.407,150.616 203.795 C 152.859 202.684,153.180 202.685,155.309 203.818 C 157.502 204.984,158.751 204.960,160.993 203.706 C 162.816 202.687,163.227 202.698,165.525 203.826 C 167.260 204.678,167.510 204.740,168.733 204.630 C 169.791 204.534,170.085 204.578,170.189 204.849 C 170.286 205.102,170.205 205.158,169.869 205.070 C 169.328 204.929,169.322 205.030,169.734 207.179 C 170.052 208.834,171.022 211.675,171.442 212.182 C 171.598 212.370,171.595 212.482,171.432 212.536 C 171.088 212.651,171.770 216.041,172.535 218.015 C 172.879 218.900,173.068 219.654,172.957 219.691 C 172.785 219.749,173.058 221.566,173.554 223.661 C 173.627 223.968,173.177 222.963,172.555 221.429 C 169.919 214.923,167.262 210.426,164.080 207.082 C 161.183 204.038,160.353 203.840,158.670 205.794 L 157.749 206.863 156.971 206.335 C 154.753 204.830,150.987 207.278,149.859 210.959 L 149.442 212.318 147.673 213.213 C 145.480 214.321,144.944 214.325,142.882 213.248 C 141.647 212.603,140.972 212.388,140.179 212.388 C 139.385 212.388,138.710 212.603,137.475 213.248 C 135.413 214.325,134.931 214.320,132.601 213.190 C 131.564 212.688,130.404 212.277,130.022 212.277 C 129.641 212.277,128.481 212.688,127.444 213.190 C 125.114 214.320,124.632 214.325,122.568 213.248 C 120.329 212.079,119.207 212.081,117.101 213.259 C 115.580 214.110,114.335 214.343,113.777 213.881 C 113.521 213.668,113.641 203.918,113.904 203.656 C 113.954 203.606,114.572 203.829,115.278 204.153 C 116.966 204.926,118.215 204.819,120.261 203.727 C 122.174 202.705,122.562 202.711,124.804 203.795 M162.642 208.315 C 167.256 213.125,169.325 217.492,174.775 233.929 C 176.831 240.128,179.086 246.507,179.786 248.103 C 180.486 249.699,181.113 251.130,181.178 251.283 C 181.412 251.828,180.564 251.554,179.801 250.837 C 178.935 250.024,177.583 247.222,171.322 233.259 C 164.920 218.983,161.793 212.589,159.778 209.650 C 159.049 208.587,159.078 208.199,159.968 207.142 C 160.716 206.253,160.627 206.214,162.642 208.315 M188.427 208.549 C 187.326 211.682,184.048 214.732,181.782 214.732 C 179.194 214.732,183.352 209.437,187.223 207.804 C 189.019 207.046,188.967 207.014,188.427 208.549 M173.302 208.039 C 176.211 209.514,178.168 211.956,178.515 214.544 C 178.652 215.561,178.631 215.562,177.332 214.588 C 176.958 214.307,176.095 213.831,175.414 213.530 C 173.874 212.849,171.652 209.251,171.652 207.439 C 171.652 207.262,172.074 207.416,173.302 208.039 M156.716 208.165 C 157.087 208.501,157.084 208.581,156.661 209.784 C 156.417 210.480,155.231 214.916,154.026 219.643 C 151.122 231.035,151.229 230.819,150.992 225.781 C 150.432 213.884,151.212 209.793,154.353 208.163 C 155.214 207.716,156.221 207.717,156.716 208.165 M257.930 209.528 C 256.852 211.523,256.495 211.998,256.297 211.705 C 256.210 211.576,255.972 211.241,255.768 210.960 L 255.398 210.450 253.545 211.810 C 251.061 213.633,250.588 213.648,251.263 211.880 C 251.656 210.851,254.101 209.413,257.366 208.292 C 258.920 207.758,258.905 207.724,257.930 209.528 M243.606 210.860 C 243.798 213.140,243.783 216.573,243.579 216.860 C 243.489 216.987,242.863 217.484,242.188 217.965 C 241.512 218.446,240.031 219.742,238.895 220.845 C 237.759 221.948,236.830 222.704,236.830 222.525 C 236.830 220.448,239.923 213.545,242.347 210.212 C 243.362 208.816,243.436 208.854,243.606 210.860 M232.656 211.142 C 233.585 212.115,234.900 213.660,235.578 214.577 L 236.811 216.244 236.267 217.664 C 235.967 218.446,235.561 219.668,235.364 220.381 L 235.005 221.677 234.332 220.604 C 233.961 220.014,233.259 219.010,232.772 218.373 C 231.633 216.884,231.265 215.492,230.699 210.547 C 230.523 209.012,230.660 209.053,232.656 211.142 M180.575 210.683 C 180.573 210.762,180.383 211.069,180.155 211.367 L 179.739 211.908 179.378 211.210 C 178.912 210.308,178.893 210.343,179.799 210.449 C 180.229 210.499,180.578 210.604,180.575 210.683 M160.015 213.454 C 161.243 215.761,164.732 223.061,164.732 223.324 C 164.732 223.386,164.350 223.438,163.883 223.438 C 163.349 223.438,162.349 223.769,161.188 224.330 C 158.923 225.426,158.429 225.436,156.495 224.422 L 154.966 223.622 156.488 217.670 C 158.321 210.500,158.264 210.691,158.496 210.834 C 158.598 210.897,159.282 212.077,160.015 213.454 M255.453 213.337 C 254.522 214.578,252.847 216.538,252.777 216.467 C 252.347 216.038,253.308 214.296,254.434 213.464 C 256.006 212.300,256.252 212.270,255.453 213.337 M17.409 219.329 C 21.162 322.989,120.174 400.156,228.470 383.822 C 301.728 372.773,361.064 320.289,377.561 251.948 C 380.455 239.957,381.784 228.964,382.154 213.951 C 382.217 211.416,386.702 227.066,388.488 236.049 C 410.491 346.741,319.846 449.525,200.112 449.650 C 71.152 449.786,-21.096 333.420,15.785 217.133 C 16.476 214.955,17.075 213.206,17.117 213.248 C 17.158 213.289,17.290 216.025,17.409 219.329 M263.951 214.251 C 266.112 215.352,267.135 215.325,269.622 214.102 C 271.768 213.046,271.928 213.051,274.097 214.249 C 276.091 215.350,277.252 215.351,279.484 214.253 C 281.927 213.050,281.780 213.055,283.968 214.106 L 285.946 215.056 285.831 216.959 C 285.768 218.005,285.657 220.025,285.584 221.447 C 285.412 224.804,285.446 224.763,283.608 223.788 C 281.591 222.718,280.755 222.733,278.376 223.884 C 277.360 224.375,276.293 224.777,276.004 224.777 C 275.716 224.777,274.649 224.375,273.633 223.884 C 271.219 222.716,270.474 222.716,268.169 223.883 C 265.976 224.993,265.570 224.993,263.478 223.884 C 262.281 223.250,261.520 222.991,260.851 222.991 C 260.209 222.991,259.322 223.275,258.063 223.884 C 257.048 224.375,255.959 224.777,255.643 224.777 C 254.811 224.777,251.760 223.177,251.837 222.780 C 251.885 222.529,253.900 221.491,255.445 220.923 C 255.685 220.834,255.180 219.196,254.913 219.196 C 254.811 219.196,253.897 219.552,252.882 219.986 C 250.413 221.043,250.050 220.883,251.960 219.579 C 253.395 218.600,254.786 217.286,255.919 215.841 C 256.163 215.529,256.812 215.145,257.366 214.985 C 257.919 214.825,258.811 214.439,259.350 214.127 C 261.279 213.012,261.534 213.019,263.951 214.251 M189.955 213.698 C 189.955 214.434,188.224 217.382,187.178 218.428 C 184.426 221.180,181.322 221.416,182.691 218.769 C 183.950 216.334,189.955 212.142,189.955 213.698 M122.032 215.084 C 124.226 216.311,125.315 216.333,127.639 215.195 C 129.934 214.072,130.110 214.072,132.405 215.194 C 134.711 216.320,135.643 216.305,137.943 215.099 C 139.881 214.084,140.474 214.083,142.401 215.093 C 144.582 216.235,145.581 216.301,147.453 215.425 C 148.276 215.040,148.961 214.751,148.973 214.784 C 149.187 215.344,148.790 223.884,148.551 223.884 C 148.386 223.884,147.589 224.235,146.779 224.665 C 144.885 225.670,144.230 225.654,142.103 224.554 C 140.990 223.977,140.081 223.661,139.541 223.661 C 139.021 223.661,138.005 223.999,136.858 224.554 C 134.561 225.664,134.182 225.663,131.880 224.538 C 129.601 223.422,128.620 223.444,126.451 224.657 C 125.549 225.161,124.743 225.446,124.219 225.446 C 123.695 225.446,122.889 225.161,121.987 224.657 C 119.818 223.444,118.837 223.422,116.557 224.538 C 113.777 225.897,113.938 226.167,113.695 219.754 L 113.552 215.960 114.771 215.960 C 115.750 215.960,116.296 215.797,117.538 215.134 C 119.513 214.080,120.222 214.072,122.032 215.084 M230.729 218.862 C 234.940 224.048,235.132 225.301,232.165 228.225 L 230.592 229.775 229.720 227.888 C 228.169 224.531,227.052 220.198,226.674 216.071 L 226.520 214.397 227.900 215.737 C 228.659 216.473,229.932 217.879,230.729 218.862 M175.591 215.756 C 178.213 217.259,179.974 219.531,180.287 221.813 L 180.431 222.864 179.523 222.145 C 179.023 221.749,177.958 221.118,177.154 220.742 C 175.538 219.986,174.905 219.173,174.091 216.807 C 173.373 214.720,173.558 214.590,175.591 215.756 M250.037 217.478 C 248.225 221.162,248.574 220.862,244.531 222.209 C 242.567 222.864,240.267 223.711,239.421 224.093 C 237.344 225.030,237.368 224.968,240.122 222.302 C 242.738 219.769,245.292 217.953,248.626 216.255 C 251.154 214.968,251.237 215.039,250.037 217.478 M181.662 216.646 C 181.705 216.681,181.560 217.016,181.339 217.389 L 180.938 218.068 180.537 217.460 C 179.906 216.502,180.749 215.892,181.662 216.646 M66.473 220.606 C 73.684 228.827,76.374 239.952,73.742 250.670 C 72.799 254.508,73.010 254.442,70.387 251.719 C 61.879 242.886,58.895 230.362,62.510 218.659 L 62.970 217.170 64.018 218.086 C 64.595 218.590,65.700 219.724,66.473 220.606 M336.924 219.029 C 340.410 230.609,337.365 243.013,328.885 251.775 L 326.615 254.121 326.043 252.311 C 322.418 240.835,325.638 227.879,334.289 219.141 C 336.605 216.802,336.258 216.816,336.924 219.029 M90.710 223.644 C 92.238 232.542,89.711 242.411,84.050 249.661 C 82.462 251.694,78.635 255.414,78.256 255.292 C 77.688 255.109,77.245 252.334,77.584 251.072 C 78.485 247.709,78.777 242.625,78.314 238.353 C 77.785 233.474,81.944 225.841,87.975 220.619 L 89.621 219.194 89.985 220.367 C 90.185 221.012,90.512 222.487,90.710 223.644 M313.281 222.456 C 317.517 226.770,321.686 234.537,321.176 237.165 C 320.535 240.478,320.758 246.776,321.652 250.588 C 322.102 252.510,321.773 255.058,321.042 255.300 C 320.577 255.455,315.598 250.265,314.137 248.103 C 308.632 239.955,306.792 229.455,309.298 220.484 L 309.655 219.204 310.575 219.920 C 311.081 220.314,312.299 221.455,313.281 222.456 M190.463 220.480 C 189.585 223.085,187.796 225.029,184.892 226.533 C 184.111 226.938,183.308 226.846,183.145 226.333 C 182.659 224.801,186.107 221.143,189.234 219.873 C 190.813 219.231,190.874 219.262,190.463 220.480 M226.119 223.511 C 226.121 223.655,226.187 224.016,226.267 224.314 L 226.412 224.855 225.650 224.284 C 225.231 223.970,224.562 223.548,224.163 223.347 C 223.649 223.086,223.438 222.824,223.438 222.445 L 223.438 221.911 224.777 222.580 C 225.513 222.948,226.117 223.367,226.119 223.511 M176.751 222.639 C 179.268 223.914,181.075 225.892,181.713 228.071 C 182.081 229.328,181.995 229.360,180.479 228.539 C 179.768 228.154,178.771 227.719,178.265 227.572 C 177.410 227.325,177.276 227.171,176.391 225.427 C 174.768 222.226,174.840 221.670,176.751 222.639 M249.186 223.433 C 247.756 225.854,244.746 228.684,243.288 228.979 C 240.634 229.517,235.890 231.159,233.453 232.383 C 232.047 233.090,231.920 233.057,231.920 231.984 C 231.920 229.667,238.554 225.867,246.875 223.419 C 249.629 222.609,249.673 222.609,249.186 223.433 M223.098 224.981 C 227.737 227.265,230.053 232.645,228.163 236.748 C 227.264 238.700,226.563 240.505,226.563 240.866 C 226.563 240.968,226.989 241.042,227.511 241.032 C 228.033 241.021,228.946 241.145,229.540 241.307 C 230.830 241.660,232.504 241.430,235.571 240.479 L 237.548 239.866 238.753 240.497 C 244.381 243.443,243.820 250.377,237.594 254.820 C 232.277 258.614,228.433 259.176,221.671 257.149 C 219.807 256.590,217.848 256.173,216.338 256.015 C 215.025 255.878,213.739 255.726,213.480 255.677 C 213.026 255.591,213.005 255.441,212.899 251.382 C 212.762 246.160,212.756 246.145,211.156 247.416 C 209.154 249.007,207.871 250.834,207.252 252.978 C 206.956 254.006,206.798 254.256,206.507 254.160 C 206.304 254.094,205.586 253.837,204.911 253.589 C 204.007 253.258,203.119 253.138,201.546 253.132 C 195.059 253.110,192.850 248.047,195.078 238.308 C 196.605 231.633,203.497 229.260,208.527 233.677 C 209.560 234.583,209.365 234.724,210.907 231.956 C 212.638 228.850,214.059 226.971,215.489 225.895 C 218.052 223.966,220.451 223.678,223.098 224.981 M253.013 225.858 C 255.118 226.931,256.326 226.929,258.295 225.849 C 260.537 224.620,260.723 224.614,262.896 225.700 C 265.428 226.966,266.244 226.968,268.745 225.713 C 271.008 224.576,270.711 224.577,273.003 225.705 C 275.476 226.921,276.506 226.945,278.689 225.834 C 281.079 224.618,281.046 224.619,283.163 225.678 C 284.198 226.195,285.044 226.731,285.044 226.869 C 285.042 227.255,284.412 231.054,284.137 232.339 C 283.915 233.374,283.834 233.482,283.284 233.482 C 282.950 233.482,281.846 233.884,280.831 234.375 C 278.543 235.481,278.216 235.481,276.028 234.374 C 274.803 233.754,273.979 233.482,273.326 233.482 C 272.673 233.482,271.849 233.754,270.624 234.374 C 268.455 235.471,268.018 235.479,266.033 234.451 C 263.716 233.252,262.826 233.238,260.530 234.360 C 258.233 235.482,257.908 235.483,255.715 234.374 C 254.490 233.754,253.667 233.482,253.013 233.482 C 252.360 233.482,251.537 233.754,250.311 234.374 C 248.193 235.446,247.709 235.470,245.957 234.586 L 244.606 233.903 245.416 232.967 C 245.862 232.452,246.420 231.621,246.656 231.121 C 247.034 230.319,247.275 230.134,248.679 229.569 C 250.484 228.842,250.621 228.664,250.121 227.697 C 249.771 227.020,249.749 227.012,249.111 227.342 C 248.107 227.861,248.127 227.781,249.384 226.235 C 250.716 224.597,250.569 224.612,253.013 225.858 M175.647 229.180 C 175.793 229.944,176.110 231.141,176.350 231.839 C 176.590 232.538,176.739 233.157,176.680 233.216 C 176.621 233.275,176.528 233.183,176.474 233.012 C 176.419 232.841,175.850 231.094,175.208 229.129 C 173.710 224.545,173.731 224.641,174.620 226.339 C 175.038 227.137,175.500 228.416,175.647 229.180 M191.422 225.837 C 190.585 229.399,185.955 233.612,184.657 231.990 C 183.984 231.149,184.001 231.057,185.125 229.531 C 186.240 228.016,187.698 226.872,189.751 225.901 C 191.505 225.071,191.603 225.068,191.422 225.837 M165.456 225.684 C 165.846 225.862,166.430 226.938,167.780 229.970 L 169.583 234.019 167.892 234.889 C 165.793 235.969,165.229 235.972,163.153 234.915 C 161.890 234.272,161.230 234.071,160.379 234.071 C 159.529 234.071,158.869 234.272,157.606 234.915 C 155.380 236.049,154.238 235.920,151.840 234.262 C 151.808 234.240,152.278 232.725,152.885 230.895 C 153.491 229.064,154.099 227.140,154.234 226.618 C 154.531 225.480,154.573 225.475,156.196 226.391 C 158.007 227.414,159.375 227.385,161.496 226.281 C 163.134 225.429,164.457 225.229,165.456 225.684 M121.476 226.507 C 122.725 227.161,123.327 227.344,124.231 227.344 C 125.135 227.344,125.740 227.160,126.991 226.507 C 128.975 225.470,129.516 225.465,131.499 226.464 C 133.884 227.665,134.756 227.683,137.014 226.579 C 139.301 225.460,139.777 225.453,141.789 226.507 C 143.981 227.655,145.108 227.653,147.321 226.498 C 149.322 225.452,149.132 225.114,149.262 229.952 L 149.372 234.040 147.585 234.912 C 145.405 235.974,144.919 235.974,142.827 234.908 C 140.594 233.771,139.538 233.772,137.294 234.915 C 135.221 235.971,134.661 235.969,132.614 234.900 C 131.380 234.255,130.704 234.040,129.911 234.040 C 129.117 234.040,128.442 234.255,127.208 234.900 C 125.161 235.969,124.600 235.971,122.528 234.915 C 120.364 233.813,119.203 233.782,117.264 234.774 L 115.890 235.477 115.513 233.781 C 115.305 232.849,114.962 231.072,114.750 229.832 L 114.365 227.578 115.497 227.111 C 116.120 226.855,117.031 226.430,117.522 226.167 C 118.812 225.477,119.648 225.549,121.476 226.507 M45.982 228.618 C 49.866 230.152,52.792 231.933,56.098 234.773 L 57.991 236.399 58.479 238.233 C 59.786 243.148,62.210 247.864,65.638 252.160 C 66.782 253.593,66.933 253.906,67.076 255.131 C 67.278 256.879,67.296 256.869,65.240 256.157 C 53.419 252.061,44.140 240.802,42.941 229.097 L 42.790 227.628 43.549 227.792 C 43.967 227.883,45.061 228.254,45.982 228.618 M356.473 228.324 C 356.473 234.582,351.374 244.381,345.397 249.608 C 341.867 252.695,333.012 257.417,332.226 256.631 C 331.732 256.137,332.490 253.697,333.544 252.391 C 337.020 248.081,339.615 243.013,340.959 237.908 C 341.711 235.055,348.455 230.220,354.576 228.147 C 356.344 227.548,356.473 227.560,356.473 228.324 M179.230 230.017 C 180.777 230.800,182.959 232.681,183.457 233.657 C 184.070 234.860,184.659 236.931,184.314 236.668 C 184.163 236.553,183.638 236.145,183.147 235.761 C 182.656 235.378,181.579 234.759,180.754 234.385 C 179.132 233.652,178.882 233.339,178.100 231.067 C 177.454 229.187,177.502 229.141,179.230 230.017 M193.214 231.082 C 192.652 233.893,189.836 236.925,187.043 237.726 L 186.384 237.915 186.384 236.600 C 186.384 234.441,190.507 230.713,193.276 230.368 C 193.322 230.362,193.294 230.683,193.214 231.082 M244.207 231.411 C 243.946 231.764,242.725 232.952,241.493 234.051 C 240.261 235.150,239.057 236.367,238.816 236.756 C 237.865 238.296,229.782 240.374,229.330 239.196 C 229.173 238.787,229.951 237.277,230.842 236.262 C 232.193 234.724,238.794 231.894,243.304 230.920 C 244.790 230.599,244.803 230.606,244.207 231.411 M245.350 236.412 C 247.391 237.456,248.473 237.416,250.878 236.209 C 251.908 235.691,252.869 235.268,253.013 235.268 C 253.158 235.268,254.119 235.691,255.149 236.209 C 257.656 237.467,258.669 237.483,260.827 236.297 C 262.808 235.207,263.371 235.204,265.416 236.271 C 267.717 237.473,268.694 237.462,271.190 236.209 C 272.221 235.691,273.182 235.268,273.326 235.268 C 273.470 235.268,274.431 235.691,275.462 236.209 C 277.933 237.450,278.942 237.468,281.153 236.314 C 283.698 234.986,283.709 235.034,282.025 240.089 C 280.677 244.137,280.033 245.536,279.521 245.536 C 279.292 245.536,278.275 245.938,277.260 246.429 C 274.984 247.529,274.856 247.529,272.680 246.428 C 271.366 245.763,270.649 245.536,269.866 245.536 C 269.083 245.536,268.366 245.763,267.053 246.428 C 264.876 247.529,264.748 247.529,262.473 246.429 C 261.238 245.832,260.323 245.536,259.710 245.536 C 259.097 245.536,258.181 245.832,256.947 246.429 C 255.932 246.920,254.876 247.321,254.600 247.321 C 254.325 247.321,253.310 246.920,252.344 246.429 C 249.990 245.232,249.103 245.232,246.740 246.428 C 245.771 246.918,244.918 247.320,244.846 247.320 C 244.774 247.321,244.590 246.628,244.439 245.781 C 243.948 243.034,242.595 240.762,240.644 239.411 C 239.563 238.662,239.682 238.332,241.706 236.463 C 243.102 235.175,242.934 235.177,245.350 236.412 M180.581 236.402 C 183.390 237.900,185.317 240.353,185.654 242.861 C 186.062 245.902,181.152 242.138,179.583 238.208 C 178.491 235.473,178.570 235.330,180.581 236.402 M122.137 236.847 C 124.462 237.985,125.550 237.963,127.744 236.736 C 129.560 235.721,130.172 235.733,132.254 236.830 C 133.462 237.467,134.223 237.723,134.900 237.723 C 135.551 237.723,136.429 237.443,137.696 236.830 C 138.711 236.339,139.778 235.938,140.067 235.938 C 140.356 235.938,141.423 236.339,142.438 236.830 C 144.727 237.937,145.639 237.978,147.457 237.056 C 148.181 236.690,148.831 236.388,148.903 236.387 C 148.974 236.385,148.918 237.238,148.778 238.281 C 148.638 239.325,148.546 240.179,148.573 240.179 C 148.600 240.179,149.139 239.219,149.771 238.047 L 150.921 235.915 152.369 236.725 C 154.585 237.964,155.666 237.988,157.997 236.847 C 160.287 235.726,160.465 235.725,162.751 236.830 C 164.017 237.443,164.895 237.723,165.547 237.723 C 166.224 237.723,166.984 237.467,168.192 236.830 C 169.124 236.339,170.013 235.938,170.166 235.938 C 170.374 235.938,174.066 243.646,174.905 245.834 C 174.980 246.029,174.692 246.227,174.061 246.416 C 173.534 246.573,172.550 246.978,171.875 247.315 C 169.877 248.311,169.702 248.310,167.613 247.285 C 165.080 246.043,164.161 246.043,161.628 247.285 C 159.485 248.336,159.377 248.333,157.046 247.121 C 154.934 246.024,153.969 246.037,151.725 247.191 C 149.614 248.277,149.132 248.279,147.073 247.208 C 144.819 246.037,143.836 246.050,141.316 247.285 C 139.176 248.335,139.061 248.331,136.764 247.137 C 134.644 246.036,133.636 246.048,131.399 247.198 C 129.282 248.287,128.676 248.285,126.675 247.186 C 124.722 246.112,123.455 246.051,121.715 246.946 C 121.075 247.275,120.490 247.545,120.417 247.545 C 120.064 247.545,117.045 239.929,116.639 238.014 C 116.492 237.323,116.530 237.277,117.786 236.629 C 119.495 235.747,119.936 235.769,122.137 236.847 M251.674 248.214 C 253.044 248.911,253.682 249.107,254.573 249.107 C 255.449 249.107,256.146 248.899,257.562 248.214 C 258.577 247.723,259.544 247.321,259.710 247.321 C 259.876 247.321,260.842 247.723,261.858 248.214 C 263.274 248.899,263.970 249.107,264.847 249.107 C 265.738 249.107,266.375 248.911,267.746 248.214 C 268.712 247.723,269.666 247.321,269.866 247.321 C 270.066 247.321,271.021 247.723,271.987 248.214 C 274.256 249.368,275.512 249.418,277.462 248.434 C 278.195 248.064,278.792 247.838,278.790 247.932 C 278.765 248.822,272.946 258.259,272.423 258.259 C 272.293 258.259,271.355 258.661,270.340 259.152 C 268.034 260.267,267.398 260.275,265.465 259.212 C 263.358 258.053,262.079 258.053,260.008 259.212 C 258.102 260.279,257.357 260.283,255.331 259.234 C 253.038 258.048,252.296 258.034,250.039 259.137 C 247.722 260.269,247.093 260.279,245.153 259.212 C 243.046 258.053,241.766 258.053,239.696 259.212 C 237.906 260.214,237.029 260.266,235.446 259.464 L 234.300 258.883 235.855 258.064 C 239.554 256.118,242.563 253.308,243.824 250.621 C 244.425 249.342,244.617 249.115,245.104 249.112 C 245.419 249.109,246.467 248.705,247.433 248.214 C 248.399 247.723,249.353 247.321,249.554 247.321 C 249.754 247.321,250.708 247.723,251.674 248.214 M176.988 250.122 L 177.972 252.246 177.434 253.397 C 177.139 254.030,176.629 254.919,176.301 255.372 L 175.705 256.197 173.176 255.342 C 170.660 254.491,166.351 253.510,166.021 253.714 C 165.926 253.773,165.848 254.953,165.848 256.337 L 165.848 258.852 164.510 258.189 C 162.610 257.247,161.635 257.297,159.327 258.450 C 157.067 259.580,157.207 259.580,154.899 258.459 C 152.403 257.247,151.615 257.247,149.119 258.459 C 146.811 259.580,146.951 259.580,144.691 258.450 C 143.350 257.780,142.567 257.526,141.844 257.526 C 141.123 257.526,140.333 257.781,138.989 258.450 C 136.722 259.579,136.892 259.578,134.586 258.462 C 132.128 257.272,131.175 257.256,128.990 258.369 C 127.491 259.133,127.394 259.154,127.096 258.773 C 126.189 257.608,122.924 252.564,122.112 251.071 L 121.177 249.352 122.300 248.783 C 123.797 248.024,124.201 248.058,126.378 249.124 C 128.703 250.261,129.791 250.240,131.985 249.013 C 133.794 248.002,134.307 248.013,136.472 249.108 C 138.777 250.275,139.523 250.275,141.937 249.107 C 142.952 248.616,144.019 248.214,144.308 248.214 C 144.597 248.214,145.664 248.616,146.679 249.107 C 147.946 249.720,148.824 250.000,149.475 250.000 C 150.152 250.000,150.913 249.743,152.121 249.107 C 154.224 247.999,154.594 247.999,156.785 249.108 C 159.090 250.275,159.835 250.275,162.249 249.107 C 163.265 248.616,164.332 248.214,164.621 248.214 C 164.909 248.214,165.976 248.616,166.992 249.107 C 169.530 250.335,169.690 250.322,173.772 248.575 C 175.848 247.687,175.864 247.694,176.988 250.122 M182.324 256.351 L 183.354 257.679 184.211 255.817 L 185.067 253.956 185.749 254.601 C 186.916 255.703,190.830 260.457,193.264 263.728 L 195.589 266.853 195.426 263.961 L 195.262 261.070 196.899 262.511 C 201.488 266.548,204.296 269.626,204.135 270.442 C 204.088 270.678,203.870 272.360,203.650 274.181 L 203.250 277.491 201.681 277.306 C 199.532 277.052,190.362 277.109,188.783 277.386 C 187.270 277.651,187.289 277.691,188.281 276.340 C 189.199 275.089,189.195 275.082,186.902 274.137 C 183.702 272.817,182.682 272.656,177.511 272.656 C 174.902 272.656,172.768 272.593,172.768 272.516 C 172.768 272.439,173.030 271.802,173.351 271.101 C 173.672 270.401,173.848 269.753,173.742 269.663 C 173.636 269.573,172.468 268.620,171.146 267.547 C 168.472 265.374,168.510 265.472,170.075 264.739 C 172.057 263.811,171.171 260.809,168.348 258.886 C 167.892 258.575,167.842 258.384,167.902 257.188 L 167.969 255.840 170.313 256.451 C 171.602 256.788,173.309 257.340,174.107 257.678 C 176.383 258.642,176.198 258.675,177.355 257.109 C 177.931 256.330,178.662 255.165,178.979 254.520 L 179.557 253.348 180.425 254.185 C 180.902 254.646,181.757 255.620,182.324 256.351 M101.370 255.428 C 108.661 265.289,109.907 279.130,104.475 289.933 C 103.394 292.085,103.596 292.034,102.401 290.458 C 101.564 289.354,101.386 288.925,101.138 287.398 C 100.530 283.666,98.733 278.749,96.812 275.559 L 95.871 273.996 95.888 269.978 C 95.912 264.465,96.699 260.945,98.996 256.083 C 100.153 253.635,100.063 253.660,101.370 255.428 M300.334 256.083 C 302.529 260.729,303.331 264.163,303.505 269.669 L 303.630 273.602 302.384 275.808 C 300.329 279.444,298.574 284.413,298.100 287.937 C 297.979 288.841,297.714 289.456,297.076 290.320 C 295.886 291.931,295.861 291.931,295.070 290.364 C 289.329 278.991,290.579 265.242,298.289 254.973 C 299.229 253.720,299.214 253.712,300.334 256.083 M217.919 258.134 C 218.806 258.306,220.368 258.713,221.391 259.038 C 225.298 260.280,228.550 260.596,230.971 259.968 C 231.608 259.802,232.157 259.753,232.192 259.859 C 232.228 259.964,233.210 260.506,234.376 261.063 C 236.977 262.307,237.832 262.309,240.176 261.082 C 242.114 260.066,242.706 260.065,244.633 261.075 C 246.960 262.294,247.819 262.312,250.103 261.190 C 251.137 260.683,252.245 260.268,252.567 260.268 C 252.888 260.268,253.997 260.683,255.030 261.190 C 257.315 262.312,258.174 262.294,260.501 261.075 C 262.433 260.063,263.000 260.066,265.011 261.101 C 266.691 261.967,268.185 262.185,269.409 261.745 C 270.197 261.462,268.721 263.195,265.063 266.851 L 262.157 269.754 261.045 269.774 C 260.228 269.788,259.493 270.016,258.276 270.633 C 256.202 271.685,255.642 271.682,253.596 270.614 C 252.362 269.969,251.687 269.754,250.893 269.754 C 250.099 269.754,249.424 269.969,248.190 270.614 C 246.143 271.683,245.582 271.685,243.510 270.629 C 242.247 269.986,241.587 269.785,240.737 269.785 C 239.886 269.785,239.226 269.986,237.963 270.629 C 235.891 271.685,235.330 271.683,233.284 270.614 C 232.049 269.969,231.374 269.754,230.580 269.754 C 229.787 269.754,229.111 269.969,227.877 270.614 C 225.830 271.683,225.270 271.685,223.197 270.629 C 221.935 269.986,221.274 269.785,220.424 269.785 C 219.574 269.785,218.913 269.986,217.651 270.629 C 215.578 271.685,215.018 271.683,212.971 270.614 C 210.761 269.459,209.781 269.456,207.597 270.597 L 205.983 271.440 206.144 270.271 C 206.380 268.556,207.265 264.737,208.055 262.026 L 208.747 259.655 209.814 259.155 C 210.401 258.880,211.170 258.411,211.523 258.112 C 212.254 257.494,214.653 257.502,217.919 258.134 M133.982 260.268 C 135.323 260.932,136.057 261.161,136.847 261.161 C 137.656 261.161,138.310 260.948,139.594 260.268 C 140.521 259.777,141.515 259.375,141.804 259.375 C 142.092 259.375,143.119 259.777,144.085 260.268 C 145.382 260.927,146.111 261.161,146.872 261.161 C 147.618 261.161,148.413 260.914,149.749 260.268 C 150.765 259.777,151.797 259.375,152.044 259.375 C 152.291 259.375,153.304 259.777,154.295 260.268 C 155.635 260.932,156.370 261.161,157.159 261.161 C 157.968 261.161,158.622 260.948,159.906 260.268 C 160.833 259.777,161.854 259.375,162.174 259.375 C 162.494 259.375,163.519 259.777,164.451 260.268 C 166.239 261.210,167.188 261.400,167.188 260.818 C 167.188 260.281,167.971 260.800,168.634 261.776 C 169.419 262.932,169.413 262.942,167.299 264.063 C 166.257 264.615,165.404 265.131,165.403 265.209 C 165.402 265.287,166.757 266.442,168.413 267.776 C 171.767 270.477,171.698 270.385,170.727 270.887 C 169.653 271.442,168.758 271.328,166.947 270.406 C 164.692 269.258,163.635 269.257,161.438 270.404 C 159.401 271.467,158.779 271.466,156.721 270.391 C 155.495 269.750,154.810 269.531,154.030 269.531 C 153.250 269.531,152.568 269.749,151.344 270.391 C 149.302 271.461,148.709 271.462,146.635 270.406 C 144.399 269.268,143.332 269.263,141.133 270.384 C 140.246 270.836,139.384 271.205,139.217 271.205 C 138.322 271.205,128.347 261.034,128.830 260.615 C 130.367 259.281,131.795 259.185,133.982 260.268 M80.181 264.558 C 90.191 269.781,96.528 279.384,97.864 291.350 C 98.000 292.567,98.032 292.554,96.329 291.968 C 85.310 288.177,76.558 277.075,74.986 264.894 C 74.593 261.849,74.947 261.826,80.181 264.558 M324.338 264.884 C 322.807 277.082,314.546 287.603,303.078 291.962 C 301.413 292.595,301.391 292.584,301.499 291.239 C 302.499 278.827,310.492 267.975,322.196 263.140 C 324.666 262.119,324.683 262.133,324.338 264.884 M146.233 272.321 C 148.647 273.489,149.392 273.489,151.697 272.322 C 153.862 271.227,154.376 271.216,156.184 272.227 C 158.378 273.454,159.467 273.476,161.791 272.338 C 164.063 271.226,164.331 271.220,166.356 272.243 C 167.283 272.712,168.463 273.115,169.131 273.192 L 170.293 273.326 169.853 274.308 C 169.303 275.532,169.117 275.474,171.875 274.947 C 175.376 274.278,180.659 274.287,183.401 274.966 C 186.471 275.727,186.436 275.646,184.695 278.008 C 182.964 280.356,182.876 280.270,186.402 279.690 C 190.963 278.941,195.532 278.687,199.063 278.986 C 203.718 279.379,203.438 279.217,203.571 281.600 L 203.683 283.594 204.551 283.594 L 205.419 283.594 205.448 278.768 C 205.477 273.804,205.579 273.214,206.408 273.214 C 206.588 273.214,207.364 272.863,208.133 272.433 C 209.916 271.436,210.535 271.451,212.612 272.545 C 213.820 273.181,214.580 273.438,215.257 273.438 C 215.908 273.438,216.786 273.157,218.053 272.545 C 220.338 271.439,220.516 271.440,222.807 272.561 C 225.131 273.699,226.220 273.677,228.414 272.450 C 230.217 271.442,230.913 271.442,232.714 272.448 C 234.912 273.678,236.027 273.700,238.354 272.561 C 239.376 272.061,240.448 271.652,240.737 271.652 C 241.025 271.652,242.098 272.061,243.120 272.561 C 245.447 273.700,246.561 273.678,248.760 272.448 C 250.557 271.443,251.257 271.442,253.047 272.443 C 254.894 273.477,256.262 273.650,257.664 273.030 C 258.237 272.777,258.705 272.607,258.705 272.652 C 258.705 272.826,252.403 277.718,248.884 280.278 C 243.549 284.157,244.285 283.832,242.739 282.994 C 240.864 281.978,239.738 282.027,237.289 283.227 C 234.996 284.351,235.293 284.352,233.030 283.216 C 230.562 281.977,229.657 281.965,227.369 283.142 C 225.279 284.217,224.775 284.215,222.638 283.131 C 220.366 281.978,219.512 281.993,216.976 283.231 C 214.683 284.351,214.979 284.351,212.723 283.219 C 210.236 281.970,209.363 281.956,207.082 283.129 C 204.965 284.217,204.467 284.217,202.325 283.131 C 200.054 281.978,199.199 281.993,196.664 283.231 C 195.627 283.737,194.667 284.152,194.531 284.152 C 194.395 284.152,193.436 283.737,192.399 283.231 C 189.863 281.993,189.007 281.977,186.766 283.131 C 184.651 284.218,184.099 284.218,181.984 283.131 C 179.743 281.977,178.887 281.993,176.351 283.231 C 175.314 283.737,174.355 284.152,174.219 284.152 C 174.083 284.152,173.123 283.737,172.086 283.231 C 169.550 281.993,168.695 281.977,166.453 283.131 C 164.338 284.219,163.787 284.218,161.668 283.129 C 159.523 282.026,158.505 281.998,156.559 282.987 L 155.193 283.682 151.871 281.289 C 146.450 277.385,141.056 273.209,140.901 272.796 C 140.808 272.547,143.132 271.457,143.789 271.442 C 144.118 271.435,145.217 271.830,146.233 272.321 M69.864 279.799 C 75.619 280.811,77.059 281.494,79.409 284.325 C 82.551 288.113,86.852 291.618,90.835 293.636 C 92.272 294.365,94.018 296.484,93.659 297.065 C 93.455 297.394,89.412 297.538,86.797 297.309 C 75.832 296.347,66.345 290.353,60.739 280.846 C 60.258 280.029,60.132 279.643,60.325 279.574 C 61.399 279.196,67.210 279.332,69.864 279.799 M339.108 279.605 C 339.195 279.658,338.957 280.226,338.580 280.866 C 333.015 290.317,323.444 296.360,312.538 297.310 C 309.989 297.532,305.876 297.397,305.684 297.085 C 305.325 296.504,307.082 294.348,308.496 293.634 C 312.484 291.619,316.774 288.132,319.883 284.378 C 322.496 281.224,325.481 280.059,332.701 279.375 C 333.734 279.278,338.874 279.462,339.108 279.605 M161.336 285.068 C 163.529 286.234,164.778 286.210,167.020 284.956 C 168.836 283.940,169.271 283.949,171.482 285.045 C 172.710 285.653,173.580 285.938,174.210 285.938 C 174.833 285.938,175.739 285.646,176.982 285.045 C 179.254 283.946,179.607 283.941,181.452 284.985 C 182.734 285.710,183.111 285.818,184.375 285.818 C 185.639 285.818,186.016 285.710,187.298 284.985 C 189.148 283.939,189.573 283.944,191.795 285.045 C 193.023 285.653,193.893 285.938,194.523 285.938 C 195.145 285.938,196.051 285.646,197.294 285.045 C 199.557 283.950,199.919 283.943,201.730 284.956 C 203.972 286.210,205.221 286.234,207.414 285.068 C 209.545 283.934,209.943 283.933,212.142 285.046 C 214.447 286.212,215.192 286.212,217.607 285.045 C 218.622 284.554,219.689 284.152,219.978 284.152 C 220.266 284.152,221.333 284.554,222.349 285.045 C 224.763 286.212,225.508 286.212,227.814 285.046 C 228.783 284.555,229.827 284.154,230.134 284.154 C 230.441 284.154,231.485 284.555,232.454 285.046 C 234.760 286.212,235.505 286.212,237.919 285.045 C 239.936 284.069,240.534 283.978,241.529 284.492 C 242.397 284.941,242.503 284.801,239.900 286.641 C 212.562 305.952,203.632 317.333,200.081 337.381 L 199.687 339.606 198.985 336.042 C 195.259 317.116,185.887 305.187,161.101 287.826 L 156.970 284.933 157.670 284.552 C 158.741 283.969,159.461 284.070,161.336 285.068 M126.923 287.336 C 135.425 296.133,138.433 308.506,134.929 320.261 L 134.578 321.437 133.284 320.298 C 132.256 319.393,131.913 318.917,131.619 317.985 C 130.631 314.851,127.898 310.150,125.146 306.851 C 122.023 303.109,121.418 293.901,123.775 285.993 C 124.228 284.473,124.106 284.421,126.923 287.336 M275.647 286.328 C 277.674 293.231,277.237 303.460,274.800 306.138 C 271.947 309.273,268.793 314.551,267.699 318.023 C 267.392 318.996,267.071 319.447,266.056 320.326 L 264.794 321.419 264.316 319.805 C 260.925 308.365,264.031 296.004,272.499 287.239 C 275.260 284.382,275.090 284.431,275.647 286.328 M105.312 298.571 C 116.492 301.469,126.033 310.867,128.885 321.790 L 129.199 322.991 128.652 322.991 C 121.795 322.991,110.601 316.099,105.829 308.939 C 103.631 305.640,100.893 299.567,100.893 297.990 C 100.893 297.622,102.434 297.825,105.312 298.571 M298.438 298.019 C 298.438 299.580,295.570 305.911,293.446 309.040 C 288.584 316.202,277.502 322.991,270.672 322.991 L 270.121 322.991 270.550 321.484 C 273.454 311.291,281.768 302.597,291.850 299.213 C 295.196 298.089,298.438 297.502,298.438 298.019 M159.475 312.467 C 165.831 316.984,170.556 324.220,172.469 332.366 C 173.037 334.787,173.449 340.999,173.126 342.284 L 172.977 342.880 171.623 342.143 C 170.464 341.512,170.073 341.118,168.896 339.397 C 167.259 337.002,162.851 332.477,160.435 330.711 C 158.062 328.977,156.344 325.393,155.106 319.594 C 154.642 317.424,154.281 311.254,154.553 310.168 L 154.704 309.566 156.202 310.386 C 157.027 310.837,158.499 311.773,159.475 312.467 M244.866 312.720 C 244.866 317.357,244.110 321.372,242.471 325.446 C 241.110 328.827,240.737 329.343,238.292 331.234 C 235.529 333.370,232.513 336.507,230.539 339.297 C 229.274 341.084,228.841 341.519,227.700 342.143 L 226.353 342.880 226.204 342.283 C 225.926 341.177,226.296 335.024,226.776 332.768 C 228.764 323.423,234.692 315.199,242.752 310.606 C 244.935 309.362,244.866 309.294,244.866 312.720 M28.661 316.095 C 29.510 321.405,33.807 326.545,39.949 329.597 C 44.571 331.893,46.588 332.314,48.549 331.389 C 52.117 329.706,51.616 326.328,47.413 323.732 C 47.008 323.482,47.020 323.442,47.656 322.916 C 48.253 322.423,48.322 322.238,48.292 321.220 C 48.172 317.187,41.588 314.917,34.263 316.384 C 31.854 316.866,31.747 316.855,30.261 315.960 C 28.599 314.959,28.481 314.969,28.661 316.095 M367.634 316.500 C 364.889 318.380,362.119 319.934,354.576 323.826 C 347.437 327.510,344.550 329.150,343.862 329.910 C 342.975 330.891,343.198 334.798,344.353 338.504 C 345.104 340.915,345.226 340.953,345.411 338.838 C 345.799 334.386,347.172 333.163,355.574 329.781 C 358.347 328.665,358.142 328.596,357.707 330.498 C 356.108 337.482,353.401 342.303,349.698 344.762 L 348.489 345.564 346.799 345.215 C 344.914 344.826,342.757 344.772,341.406 345.081 C 339.902 345.424,333.490 352.202,328.348 358.883 C 328.041 359.282,327.489 359.690,327.121 359.790 C 323.093 360.882,323.486 353.817,327.668 349.944 L 329.213 348.513 328.248 345.741 C 327.128 342.526,327.076 342.497,325.608 344.308 C 320.613 350.472,320.550 358.532,325.458 363.440 C 327.634 365.616,327.553 365.664,334.731 357.904 C 337.503 354.906,340.631 351.701,341.681 350.781 L 343.590 349.107 345.222 349.107 C 347.524 349.107,348.661 349.817,348.661 351.253 C 348.661 352.275,339.702 362.248,333.182 368.482 C 330.368 371.173,330.734 371.121,327.507 369.302 C 323.773 367.199,323.100 367.504,323.107 371.296 C 323.112 374.602,323.968 376.525,326.088 377.994 C 327.088 378.687,327.256 378.649,329.158 377.306 C 331.947 375.335,332.496 375.324,333.347 377.219 C 335.023 380.955,333.314 383.880,327.734 386.826 C 326.371 387.546,326.174 387.787,326.513 388.321 C 327.042 389.152,335.781 386.092,336.724 384.746 C 337.673 383.391,336.969 378.690,335.375 375.740 L 334.388 373.913 336.000 372.408 C 339.722 368.931,348.702 359.399,351.114 356.364 C 352.018 355.226,352.268 354.294,352.364 351.693 L 352.446 349.479 353.846 348.595 C 357.415 346.343,357.709 345.892,359.967 339.191 C 362.696 331.093,365.996 325.457,370.206 321.705 L 371.405 320.636 370.606 318.075 C 370.167 316.666,369.746 315.443,369.669 315.357 C 369.593 315.271,368.677 315.785,367.634 316.500 M104.849 316.196 L 107.188 316.543 108.895 318.002 C 112.577 321.149,117.066 323.705,121.547 325.207 C 123.902 325.996,124.128 326.125,125.120 327.241 L 126.178 328.433 124.752 328.841 C 112.714 332.280,98.890 328.255,90.846 318.970 C 89.447 317.355,89.418 317.399,92.299 316.735 C 96.350 315.802,100.887 315.607,104.849 316.196 M305.571 316.393 C 307.995 316.893,309.598 317.391,309.598 317.645 C 309.598 317.767,308.518 318.945,307.198 320.262 C 298.723 328.716,286.566 332.027,275.167 328.984 C 273.158 328.448,273.135 328.392,274.371 327.050 C 275.196 326.155,275.595 325.940,277.801 325.201 C 282.691 323.562,287.715 320.610,291.295 317.271 C 292.753 315.911,300.826 315.414,305.571 316.393 M41.770 317.732 C 45.853 318.598,47.136 321.228,43.724 321.739 C 40.477 322.224,32.318 319.170,33.556 317.932 C 34.061 317.427,39.687 317.291,41.770 317.732 M40.220 323.101 C 46.613 324.297,48.042 325.177,47.703 327.708 C 47.198 331.475,43.064 330.937,38.582 326.519 C 34.525 322.521,34.738 322.075,40.220 323.101 M141.550 327.464 C 152.210 328.531,161.398 334.311,166.983 343.462 L 168.317 345.647 167.696 345.788 C 166.661 346.024,162.956 345.996,160.826 345.736 C 150.318 344.457,140.942 338.305,135.816 329.326 L 134.812 327.567 135.877 327.435 C 137.656 327.214,139.128 327.221,141.550 327.464 M263.005 327.378 L 264.514 327.520 263.707 328.995 C 257.747 339.876,243.891 347.334,232.321 345.889 L 231.065 345.732 231.971 344.127 C 238.121 333.236,251.064 326.250,263.005 327.378 M27.911 329.227 C 27.640 329.402,27.779 329.839,28.747 331.850 C 29.386 333.177,30.198 335.067,30.551 336.049 L 31.193 337.835 32.393 338.242 C 33.233 338.527,34.627 338.695,37.033 338.800 L 40.472 338.951 39.153 339.880 C 33.325 343.986,35.192 348.195,43.697 350.126 C 44.524 350.314,45.362 350.515,45.559 350.573 C 46.089 350.730,46.948 352.460,47.971 355.433 C 53.256 370.789,69.917 380.882,91.518 381.813 C 96.236 382.017,99.657 382.831,100.323 383.910 C 100.401 384.035,100.854 383.946,101.424 383.694 C 101.957 383.458,103.178 383.149,104.137 383.006 L 105.881 382.747 104.795 382.320 C 103.119 381.662,101.336 381.307,97.210 380.810 C 71.703 377.742,54.533 366.440,53.211 351.848 C 53.003 349.561,52.880 349.462,49.851 349.154 C 44.968 348.657,43.535 347.724,42.628 344.453 C 42.118 342.614,42.252 341.942,43.521 339.965 L 44.243 338.839 46.532 338.839 C 50.103 338.839,50.893 338.682,50.893 337.972 L 50.893 337.388 45.703 337.381 C 36.546 337.368,33.239 335.834,28.524 329.408 C 28.322 329.133,28.140 329.079,27.911 329.227 M54.018 340.392 C 54.018 340.850,55.201 344.780,55.468 345.209 C 55.780 345.709,60.026 345.867,60.497 345.396 C 60.739 345.154,59.988 341.837,59.454 340.792 L 59.140 340.179 56.579 340.179 C 55.100 340.179,54.018 340.269,54.018 340.392 M147.797 345.652 C 151.976 347.790,156.568 349.112,161.476 349.591 C 163.771 349.814,164.036 349.891,165.120 350.641 C 166.598 351.665,166.592 351.676,163.930 353.013 C 156.267 356.863,146.707 357.534,138.464 354.799 C 135.228 353.726,128.921 350.268,128.636 349.411 C 128.382 348.649,136.266 345.608,140.067 345.002 C 144.958 344.222,145.010 344.227,147.797 345.652 M259.845 345.091 C 263.444 345.775,270.759 348.616,270.759 349.330 C 270.759 350.105,264.110 353.743,260.648 354.863 C 252.190 357.598,242.149 356.740,234.654 352.640 C 232.726 351.585,232.742 351.658,234.210 350.641 C 235.295 349.891,235.559 349.814,237.854 349.591 C 242.786 349.110,247.598 347.717,251.451 345.654 L 253.683 344.459 255.692 344.571 C 256.797 344.633,258.666 344.867,259.845 345.091 M313.616 373.701 C 312.185 374.110,312.243 373.792,312.319 380.898 L 312.388 387.388 311.839 388.348 C 311.032 389.757,309.686 390.409,306.978 390.703 C 305.905 390.819,306.021 391.035,305.258 387.476 C 304.817 385.417,304.513 384.928,303.812 385.151 C 303.434 385.271,303.333 385.435,303.417 385.792 C 304.056 388.516,304.077 388.742,303.808 390.021 C 303.063 393.561,295.546 399.429,287.745 402.559 C 278.934 406.096,276.143 405.841,273.771 401.284 C 273.094 399.985,272.910 399.846,272.340 400.207 C 271.614 400.667,274.944 406.344,276.843 407.883 C 280.255 410.650,282.807 410.483,289.849 407.031 C 298.736 402.675,304.779 397.298,305.463 393.137 C 305.609 392.249,305.657 392.198,306.214 392.327 C 307.340 392.588,308.784 393.314,309.748 394.104 C 311.487 395.529,312.989 393.976,314.087 389.615 C 314.279 388.853,314.431 388.629,314.704 388.704 C 314.904 388.759,316.071 388.867,317.299 388.944 C 318.527 389.020,319.805 389.136,320.140 389.201 C 320.637 389.297,320.942 389.137,321.788 388.338 C 323.308 386.902,323.338 386.082,322.017 382.078 C 319.627 374.834,317.405 372.619,313.616 373.701 M290.545 382.646 C 290.300 383.040,288.689 385.842,288.240 386.657 C 288.191 386.745,289.443 387.465,291.022 388.257 L 293.894 389.695 294.745 387.984 C 295.213 387.043,295.734 385.947,295.903 385.550 L 296.209 384.827 293.533 383.485 L 290.858 382.144 290.545 382.646 M281.841 386.664 C 281.613 387.063,281.026 388.117,280.536 389.008 L 279.646 390.628 282.481 391.966 C 284.040 392.702,285.357 393.304,285.408 393.304 C 285.659 393.304,287.715 388.502,287.495 388.428 C 287.358 388.383,286.142 387.804,284.793 387.142 C 281.894 385.719,282.340 385.791,281.841 386.664 M97.321 387.135 C 94.480 389.227,93.415 391.273,93.415 394.643 C 93.415 397.690,93.622 398.029,96.928 400.383 C 107.075 407.612,113.014 410.262,120.838 411.054 C 122.698 411.242,124.369 411.419,124.553 411.448 C 124.818 411.491,124.893 411.897,124.910 413.396 C 124.969 418.361,127.399 418.476,136.411 413.937 C 138.154 413.060,138.139 413.051,138.815 415.253 C 139.431 417.261,139.467 417.305,140.058 416.750 C 140.334 416.490,141.302 415.905,142.209 415.449 C 144.098 414.501,144.688 413.762,144.243 412.908 C 143.882 412.216,143.527 410.238,143.527 408.916 C 143.527 407.009,143.253 406.821,141.587 407.577 C 140.400 408.116,138.808 409.578,138.008 410.863 C 137.487 411.700,137.086 412.002,135.491 412.758 C 129.799 415.454,127.452 415.346,127.459 412.388 C 127.463 410.887,127.659 410.521,128.705 410.058 C 130.132 409.427,130.804 408.668,130.804 407.688 L 130.804 406.873 129.977 407.599 C 127.008 410.206,124.798 410.061,117.188 406.761 C 108.092 402.816,96.652 395.047,96.652 392.814 C 96.652 391.512,97.456 389.080,98.188 388.169 C 99.517 386.516,99.000 385.899,97.321 387.135 M74.777 387.416 L 73.996 387.761 77.790 388.736 C 82.061 389.834,82.581 389.883,84.437 389.362 C 85.919 388.946,85.802 388.754,83.929 388.523 C 83.253 388.439,81.366 388.075,79.735 387.712 C 76.367 386.964,75.867 386.935,74.777 387.416 M110.491 389.853 C 109.816 390.008,109.006 390.145,108.692 390.157 C 107.286 390.210,107.263 390.540,108.499 393.008 C 109.125 394.257,109.772 395.331,109.937 395.395 C 110.347 395.552,114.209 394.761,114.595 394.441 C 115.203 393.936,112.665 389.375,111.868 389.540 C 111.786 389.557,111.166 389.698,110.491 389.853 M118.304 393.871 C 117.628 394.026,116.819 394.163,116.505 394.175 C 115.114 394.227,115.088 394.570,116.292 396.899 C 116.902 398.079,117.535 399.155,117.699 399.291 C 118.045 399.579,121.879 398.897,122.414 398.454 C 122.996 397.970,120.622 393.475,119.827 393.558 C 119.664 393.575,118.979 393.716,118.304 393.871 M220.918 396.422 C 220.217 397.646,219.643 398.700,219.643 398.764 C 219.643 398.898,224.904 401.563,225.169 401.563 C 225.266 401.563,225.869 400.508,226.510 399.220 L 227.675 396.877 225.002 395.537 C 223.531 394.799,222.298 394.196,222.261 394.196 C 222.224 394.196,221.619 395.198,220.918 396.422 M211.932 398.158 C 211.475 398.987,210.908 399.988,210.672 400.382 L 210.242 401.100 213.115 402.540 L 215.989 403.980 217.146 401.652 C 217.783 400.372,218.304 399.271,218.304 399.204 C 218.304 399.045,213.357 396.656,213.021 396.654 C 212.879 396.653,212.388 397.330,211.932 398.158 M185.491 398.670 C 184.202 398.762,180.385 398.910,177.009 399.000 C 172.421 399.121,170.659 399.246,170.034 399.494 C 167.374 400.547,164.781 405.760,162.159 415.330 C 161.052 419.367,160.492 419.890,157.110 420.053 L 155.403 420.134 155.269 419.498 C 155.196 419.148,155.035 418.108,154.912 417.188 C 153.697 408.082,148.430 408.288,145.814 417.542 C 145.139 419.933,145.797 421.219,147.799 421.420 C 148.921 421.533,149.022 421.594,149.414 422.396 L 149.832 423.253 148.886 424.216 C 146.570 426.577,142.578 427.527,138.075 426.790 C 136.194 426.482,135.752 426.880,137.218 427.563 C 137.803 427.835,138.886 428.449,139.626 428.928 C 142.053 430.500,142.757 430.734,143.596 430.247 C 145.167 429.335,147.112 427.696,149.554 425.229 L 152.121 422.634 153.396 422.837 C 155.111 423.109,157.540 422.569,159.263 421.531 C 160.809 420.600,160.889 420.593,161.076 421.373 C 162.348 426.696,163.100 427.683,165.882 427.675 C 168.949 427.667,171.454 426.591,175.982 423.338 C 177.749 422.069,179.813 420.610,180.570 420.096 C 182.194 418.993,182.335 418.353,181.027 418.018 C 180.597 417.908,179.421 417.229,178.414 416.509 C 174.402 413.643,173.176 413.658,170.658 416.606 C 169.536 417.919,167.411 421.318,167.411 421.799 C 167.411 422.688,164.975 421.762,164.160 420.564 C 163.014 418.876,164.260 411.912,166.813 405.747 C 168.483 401.714,168.004 401.899,176.116 402.142 C 181.782 402.311,182.478 402.212,185.600 400.790 C 187.418 399.961,188.052 399.521,188.421 398.831 C 188.587 398.521,188.547 398.445,188.233 398.471 C 188.014 398.489,186.780 398.579,185.491 398.670 M267.755 400.897 C 267.668 401.570,267.458 402.672,267.288 403.345 C 266.981 404.562,266.983 404.574,267.599 405.243 C 269.851 407.687,269.924 409.534,267.813 410.626 C 266.063 411.530,264.063 409.808,264.063 407.397 C 264.063 406.636,263.804 406.250,263.295 406.250 C 263.262 406.250,263.173 406.904,263.098 407.704 C 262.835 410.529,262.255 411.660,260.817 412.155 C 259.302 412.676,257.784 411.817,257.697 410.388 C 257.617 409.068,256.473 408.103,256.473 409.355 C 256.473 410.397,255.706 412.572,254.951 413.668 C 252.028 417.918,243.527 418.151,243.527 413.982 C 243.527 413.543,243.169 413.170,242.747 413.170 C 242.707 413.170,242.257 413.930,241.747 414.858 C 238.629 420.540,231.507 421.929,227.605 417.617 C 226.350 416.230,226.103 415.881,222.490 410.379 C 219.010 405.081,218.853 404.991,218.188 407.903 C 217.995 408.750,217.738 409.628,217.617 409.853 C 217.433 410.198,217.772 410.621,219.778 412.553 C 224.645 417.240,226.436 420.439,225.199 422.242 C 223.499 424.721,218.586 427.908,216.481 427.897 C 213.234 427.880,210.710 424.120,211.663 420.719 C 211.805 420.214,211.728 420.047,211.172 419.651 L 210.513 419.182 210.167 420.346 C 208.942 424.471,211.085 430.060,214.555 431.789 C 217.754 433.383,222.247 430.770,226.148 425.046 L 227.714 422.748 228.614 423.561 C 232.828 427.368,238.230 426.006,241.264 420.370 L 242.231 418.573 243.032 419.460 C 244.012 420.545,245.665 421.413,247.060 421.575 C 249.786 421.891,255.274 418.302,257.127 414.992 C 257.278 414.721,257.449 414.811,258.020 415.462 C 258.812 416.363,260.427 417.085,261.213 416.888 C 262.497 416.565,264.286 414.477,264.286 413.299 L 264.286 412.737 265.084 413.278 C 266.891 414.504,268.511 414.899,269.454 414.342 C 272.559 412.509,272.054 404.555,268.572 400.451 L 267.913 399.674 267.755 400.897 M230.731 405.366 C 230.034 406.582,229.465 407.655,229.467 407.750 C 229.470 407.949,235.008 410.606,235.134 410.469 C 235.179 410.420,235.733 409.346,236.365 408.082 L 237.514 405.784 235.869 405.035 C 234.965 404.623,233.724 404.032,233.111 403.721 L 231.997 403.157 230.731 405.366 M272.110 416.434 C 271.442 416.991,270.056 417.959,269.030 418.586 C 266.863 419.910,265.761 421.034,265.379 422.309 C 265.030 423.475,265.213 423.633,266.121 422.951 C 266.523 422.649,267.757 421.861,268.862 421.198 C 272.097 419.258,273.652 417.439,273.401 415.887 C 273.333 415.465,273.213 415.515,272.110 416.434 M176.753 418.543 L 178.989 419.707 177.943 420.582 C 172.189 425.397,166.321 424.670,169.791 419.572 C 171.783 416.646,172.819 416.493,176.753 418.543 " stroke="none" fill="#064526" fill-rule="evenodd"></path></g></svg>