<svg width="25" height="25" viewBox="0 0 25 25" fill="none" xmlns="http://www.w3.org/2000/svg">
<path d="M6.09961 20.4203L7.62357 19.2012L7.63478 19.1926C7.95249 18.9384 8.11281 18.8101 8.29168 18.7188C8.45216 18.6368 8.62328 18.5771 8.7998 18.5408C8.99877 18.5 9.20603 18.5 9.62207 18.5H18.3031C19.421 18.5 19.9806 18.5 20.408 18.2822C20.7843 18.0905 21.0905 17.7842 21.2822 17.4079C21.5 16.9805 21.5 16.4215 21.5 15.3036V7.69691C21.5 6.57899 21.5 6.0192 21.2822 5.5918C21.0905 5.21547 20.7837 4.90973 20.4074 4.71799C19.9796 4.5 19.4203 4.5 18.3002 4.5H6.7002C5.58009 4.5 5.01962 4.5 4.5918 4.71799C4.21547 4.90973 3.90973 5.21547 3.71799 5.5918C3.5 6.01962 3.5 6.58009 3.5 7.7002V19.1712C3.5 20.2369 3.5 20.7696 3.71846 21.0433C3.90845 21.2813 4.19644 21.4198 4.50098 21.4195C4.85115 21.4191 5.26744 21.0861 6.09961 20.4203Z" stroke="white" stroke-width="1.6" stroke-linecap="round" stroke-linejoin="round"/>
</svg>