<svg width="23" height="23" viewBox="0 0 23 23" fill="none" xmlns="http://www.w3.org/2000/svg">
<path d="M11.5003 20.4375C12.5087 20.4375 13.3337 19.6125 13.3337 18.6042H9.66699C9.66699 19.6125 10.492 20.4375 11.5003 20.4375ZM17.0003 14.9375V10.3542C17.0003 7.54 15.5062 5.18417 12.8753 4.56083V3.9375C12.8753 3.17667 12.2612 2.5625 11.5003 2.5625C10.7395 2.5625 10.1253 3.17667 10.1253 3.9375V4.56083C7.50366 5.18417 6.00033 7.53083 6.00033 10.3542V14.9375L4.16699 16.7708V17.6875H18.8337V16.7708L17.0003 14.9375ZM15.167 15.8542H7.83366V10.3542C7.83366 8.08083 9.21783 6.22917 11.5003 6.22917C13.7828 6.22917 15.167 8.08083 15.167 10.3542V15.8542Z" fill="#131417"/>
<circle cx="16.5" cy="4.5" r="2.5" fill="#FF3636" stroke="white"/>
</svg>
