<svg width="16" height="17" viewBox="0 0 16 17" fill="none" xmlns="http://www.w3.org/2000/svg">
<g clip-path="url(#clip0_483_18439)">
<path d="M1.71431 2.78516C0.774298 2.78516 0 3.55945 0 4.49947V12.4996C0 13.4396 0.774298 14.2139 1.71431 14.2139H14.2859C15.226 14.2139 16.0003 13.4396 16.0003 12.4996V4.49947C16.0003 3.55945 15.226 2.78516 14.2859 2.78516H1.71431ZM1.71431 3.92803H14.2859C14.6094 3.92803 14.8574 4.17604 14.8574 4.49947V12.4996C14.8574 12.823 14.6094 13.071 14.2859 13.071H1.71431C1.39088 13.071 1.14288 12.823 1.14288 12.4996V4.49947C1.14288 4.17604 1.39088 3.92803 1.71431 3.92803ZM5.14294 5.07091C3.88578 5.07091 2.85719 6.0995 2.85719 7.35666C2.85719 7.99267 3.12977 8.56639 3.55377 8.98183C3.16481 9.24431 2.84593 9.59792 2.62492 10.0119C2.40391 10.4258 2.28747 10.8875 2.28575 11.3567H3.42863C3.42863 10.4036 4.18978 9.64241 5.14294 9.64241C6.0961 9.64241 6.85725 10.4036 6.85725 11.3567H8.00013C7.99841 10.8875 7.88197 10.4258 7.66096 10.0119C7.43995 9.59792 7.12107 9.24431 6.73211 8.98183C7.15612 8.56639 7.42869 7.99324 7.42869 7.35666C7.42869 6.0995 6.4001 5.07091 5.14294 5.07091ZM9.14301 5.64235V6.78522H13.7145V5.64235H9.14301ZM5.14294 6.21378C5.78124 6.21378 6.28582 6.71836 6.28582 7.35666C6.28582 7.99496 5.78124 8.49954 5.14294 8.49954C4.50464 8.49954 4.00007 7.99496 4.00007 7.35666C4.00007 6.71836 4.50464 6.21378 5.14294 6.21378ZM9.14301 7.9281V9.07097H13.7145V7.9281H9.14301ZM9.14301 10.2138V11.3567H12.0002V10.2138H9.14301Z" fill="white"/>
</g>
<defs>
<clipPath id="clip0_483_18439">
<rect width="16" height="16" fill="white" transform="translate(0 0.5)"/>
</clipPath>
</defs>
</svg>
