<svg width="25" height="25" viewBox="0 0 25 25" fill="none" xmlns="http://www.w3.org/2000/svg">
<path d="M21.5 20.4999C21.5 18.7583 19.8304 17.2767 17.5 16.7275M15.5 20.5C15.5 18.2909 12.8137 16.5 9.5 16.5C6.18629 16.5 3.5 18.2909 3.5 20.5M15.5 13.5C17.7091 13.5 19.5 11.7091 19.5 9.5C19.5 7.29086 17.7091 5.5 15.5 5.5M9.5 13.5C7.29086 13.5 5.5 11.7091 5.5 9.5C5.5 7.29086 7.29086 5.5 9.5 5.5C11.7091 5.5 13.5 7.29086 13.5 9.5C13.5 11.7091 11.7091 13.5 9.5 13.5Z" stroke="white" stroke-width="1.6" stroke-linecap="round" stroke-linejoin="round"/>
</svg>