<svg width="18" height="18" viewBox="0 0 18 18" fill="none" xmlns="http://www.w3.org/2000/svg">
<path d="M11.25 12.7495V13.4995C11.25 14.7422 10.2426 15.7495 9 15.7495C7.75736 15.7495 6.75 14.7422 6.75 13.4995V12.7495M11.25 12.7495H6.75M11.25 12.7495H13.9429C14.2298 12.7495 14.3739 12.7495 14.4901 12.7103C14.712 12.6355 14.8856 12.4612 14.9604 12.2393C14.9998 12.1227 14.9998 11.9781 14.9998 11.689C14.9998 11.5624 14.9996 11.4992 14.9897 11.4388C14.971 11.3248 14.9268 11.2168 14.8594 11.1229C14.8238 11.0733 14.7786 11.0281 14.6894 10.9389L14.3972 10.6467C14.303 10.5525 14.25 10.4246 14.25 10.2913V7.49951C14.25 4.60001 11.8995 2.2495 9 2.24951C6.10051 2.24952 3.75 4.60002 3.75 7.49951V10.2913C3.75 10.4246 3.69693 10.5525 3.60267 10.6467L3.31055 10.9389C3.22108 11.0283 3.17628 11.0733 3.14062 11.1229C3.07324 11.2168 3.02861 11.3248 3.0099 11.4388C3 11.4992 3 11.5624 3 11.689C3 11.9781 3 12.1227 3.03934 12.2393C3.11419 12.4612 3.2886 12.6355 3.5105 12.7103C3.62667 12.7495 3.77026 12.7495 4.05717 12.7495H6.75M13.5139 1.50977C14.5483 2.28925 15.3632 3.32334 15.8793 4.51131M4.48647 1.50977C3.45206 2.28925 2.63715 3.32334 2.12109 4.51131" stroke="white" stroke-width="1.6" stroke-linecap="round" stroke-linejoin="round"/>
</svg>
