<svg width="46" height="53" viewBox="0 0 46 53" fill="none" xmlns="http://www.w3.org/2000/svg">
<path d="M14.5645 47.1953C15.5864 50.271 18.4833 52.4961 21.8994 52.4961C25.3132 52.4961 28.2125 50.2709 29.2343 47.1953H14.5645Z" fill="url(#paint0_linear_483_13083)"/>
<path d="M36.0738 8.53809C31.0919 8.53809 27.0547 12.5753 27.0547 17.5572C27.0547 22.5391 31.0919 26.5763 36.0738 26.5763C41.0557 26.5763 45.0929 22.5391 45.0929 17.5572C45.0929 12.5753 41.0557 8.53809 36.0738 8.53809ZM36.0738 22.7131C35.3635 22.7131 34.7861 22.1357 34.7861 21.4254C34.7861 20.7151 35.3635 20.1376 36.0738 20.1376C36.7841 20.1376 37.3615 20.715 37.3615 21.4254C37.3615 22.1356 36.7841 22.7131 36.0738 22.7131ZM37.3615 17.5597C37.3615 18.27 36.7865 18.8474 36.0738 18.8474C35.3611 18.8474 34.7861 18.27 34.7861 17.5597V13.694C34.7861 12.9837 35.3611 12.4062 36.0738 12.4062C36.7865 12.4062 37.3615 12.9837 37.3615 13.694V17.5597Z" fill="url(#paint1_linear_483_13083)"/>
<path d="M39.5339 31.9767C38.9662 31.2519 38.6521 30.3435 38.6521 29.4229V28.8552C37.8234 29.0436 36.9608 29.1548 36.0741 29.1548C29.6787 29.1548 24.4771 23.9506 24.4771 17.5577C24.4771 14.5594 25.6295 11.8317 27.5043 9.77067C26.9535 9.57497 26.3954 9.40101 25.8179 9.26571C26.5766 8.36696 27.0525 7.22414 27.0525 5.95811C27.0525 3.11439 24.7404 0.804688 21.8991 0.804688C19.0554 0.804688 16.7457 3.11686 16.7457 5.95811C16.7457 7.22173 17.2216 8.3669 17.9803 9.26571C10.6404 10.9811 5.14869 17.5649 5.14869 25.4193V29.4203C5.14869 30.3409 4.8346 31.2469 4.26682 31.9741L1.14767 35.9509C-0.128005 37.5769 -0.357533 39.7417 0.546072 41.6021C1.44965 43.4624 3.29553 44.6149 5.36371 44.6149H38.4373C40.503 44.6149 42.3513 43.46 43.2549 41.6021C44.1585 39.7441 43.9265 37.5769 42.6533 35.9509L39.5342 31.9741L39.5339 31.9767ZM18.7897 17.0601C15.8566 18.1063 13.6628 20.6407 13.0613 23.6726C12.9405 24.2863 12.4017 24.7115 11.7977 24.7115C11.7155 24.7115 11.631 24.7043 11.5464 24.6874C10.8482 24.5496 10.3939 23.8707 10.5317 23.1725C11.3072 19.2537 14.1388 15.9799 17.9222 14.6315C18.5915 14.3923 19.3284 14.7426 19.57 15.4119C19.8092 16.0835 19.459 16.8185 18.7897 17.0601ZM21.8992 8.53891C20.4785 8.53891 19.3212 7.38403 19.3212 5.96096C19.3212 4.54031 20.4761 3.38301 21.8992 3.38301C23.3198 3.38301 24.4771 4.53789 24.4771 5.96096C24.4771 7.38162 23.3222 8.53891 21.8992 8.53891Z" fill="url(#paint2_linear_483_13083)"/>
<defs>
<linearGradient id="paint0_linear_483_13083" x1="34.9022" y1="45.087" x2="11.6542" y2="56.3412" gradientUnits="userSpaceOnUse">
<stop stop-color="#04B961"/>
<stop offset="1" stop-color="#006C37"/>
</linearGradient>
<linearGradient id="paint1_linear_483_13083" x1="23.1957" y1="9.80227" x2="54.2226" y2="26.8671" gradientUnits="userSpaceOnUse">
<stop stop-color="#CB0700"/>
<stop offset="1" stop-color="#650300"/>
</linearGradient>
<linearGradient id="paint2_linear_483_13083" x1="60.7231" y1="-16.6198" x2="-22.4132" y2="-2.08065" gradientUnits="userSpaceOnUse">
<stop stop-color="#04B961"/>
<stop offset="1" stop-color="#006C37"/>
</linearGradient>
</defs>
</svg>
