<svg width="70" height="71" viewBox="0 0 70 71" fill="none" xmlns="http://www.w3.org/2000/svg">
<g clip-path="url(#clip0_214_11570)">
<path d="M69.9924 25.8293V63.7805C69.9924 65.7271 69.164 67.4799 67.8412 68.7072C66.6412 69.8196 65.0358 70.4995 63.2718 70.4995H6.71946C4.95547 70.4995 3.35009 69.8196 2.15167 68.7082C0.82881 67.4799 0.000488281 65.7271 0.000488281 63.7805V25.8293H69.9924Z" fill="url(#paint0_linear_214_11570)"/>
<path d="M69.9919 25.8291L43.0888 3.42812C38.3997 -0.476366 31.5921 -0.476366 26.9031 3.42812L0 25.8291H0.000534057L7.92967 32.4311L26.9031 48.2291C31.5927 52.1346 38.4003 52.1346 43.0882 48.2291L62.0633 32.4311L69.9924 25.8291" fill="#00532B"/>
<path d="M62.0633 11.8491V32.4312L43.0883 48.2291C38.4003 52.1346 31.5927 52.1346 26.9031 48.2291L7.92969 32.4312V11.8491C7.92969 7.55799 11.4091 4.07861 15.7013 4.07861H54.2928C58.585 4.07861 62.0633 7.55799 62.0633 11.8491Z" fill="white"/>
<path d="M62.0633 11.8491V27.717L43.0883 43.5155C38.4003 47.4205 31.5927 47.4205 26.9031 43.5155L7.92969 27.717V11.8491C7.92969 7.55799 11.4091 4.07861 15.7013 4.07861H54.2928C58.585 4.07861 62.0633 7.55799 62.0633 11.8491Z" fill="url(#paint1_linear_214_11570)"/>
<path d="M50.7086 31.2483H19.2842C18.6925 31.2483 18.2129 30.7688 18.2129 30.177C18.2129 29.5858 18.6925 29.1057 19.2842 29.1057H50.7086C51.3004 29.1057 51.78 29.5858 51.78 30.177C51.78 30.7688 51.3004 31.2483 50.7086 31.2483Z" fill="#00532B"/>
<path d="M50.7086 37.4705H19.2842C18.6925 37.4705 18.2129 36.9909 18.2129 36.3992C18.2129 35.8075 18.6925 35.3279 19.2842 35.3279H50.7086C51.3004 35.3279 51.78 35.8075 51.78 36.3992C51.78 36.9909 51.3004 37.4705 50.7086 37.4705Z" fill="#00532B"/>
<path d="M50.7086 18.8047H19.2842C18.6925 18.8047 18.2129 18.3252 18.2129 17.7334C18.2129 17.1417 18.6925 16.6621 19.2842 16.6621H50.7086C51.3004 16.6621 51.78 17.1417 51.78 17.7334C51.78 18.3252 51.3004 18.8047 50.7086 18.8047Z" fill="#00532B"/>
<path d="M50.7086 25.0264H19.2842C18.6925 25.0264 18.2129 24.5468 18.2129 23.9551C18.2129 23.3634 18.6925 22.8838 19.2842 22.8838H50.7086C51.3004 22.8838 51.78 23.3634 51.78 23.9551C51.78 24.5468 51.3004 25.0264 50.7086 25.0264Z" fill="#00532B"/>
<path d="M63.4685 66.139C63.2271 66.139 62.9841 66.0578 62.7839 65.8912L45.701 51.6682C45.2465 51.2895 45.1851 50.614 45.5632 50.1595C45.9419 49.705 46.6174 49.643 47.0719 50.0217L64.1543 64.2442C64.6093 64.6228 64.6712 65.2979 64.2926 65.7529C64.0806 66.0076 63.7756 66.139 63.4685 66.139Z" fill="#00532B"/>
<path d="M24.2579 51.6964L10.2191 63.6876C8.28531 65.3399 9.14995 68.4978 11.6563 68.9336C15.6879 69.6343 20.3988 70.4204 21.6656 70.5H6.71999C4.95547 70.5 3.35009 69.8201 2.15167 68.7088C0.82881 67.4804 0.000488281 65.7277 0.000488281 63.781V25.8293H5.07296V51.6996C5.12156 56.9291 11.252 59.7355 15.2718 56.3902L22.9206 50.0211C23.3836 49.6371 24.0763 49.707 24.4507 50.1855C24.8122 50.6464 24.7076 51.322 24.2579 51.6964Z" fill="#00532B"/>
</g>
<defs>
<linearGradient id="paint0_linear_214_11570" x1="97.0347" y1="8.06282" x2="-30.3122" y2="42.9661" gradientUnits="userSpaceOnUse">
<stop stop-color="#04B961"/>
<stop offset="1" stop-color="#006C37"/>
</linearGradient>
<linearGradient id="paint1_linear_214_11570" x1="34.9965" y1="32.9698" x2="34.9965" y2="-10.8856" gradientUnits="userSpaceOnUse">
<stop stop-color="white"/>
<stop offset="1" stop-color="#D9D9D9"/>
</linearGradient>
<clipPath id="clip0_214_11570">
<rect width="70" height="70" fill="white" transform="translate(0 0.5)"/>
</clipPath>
</defs>
</svg>
